<?xml version="1.0" encoding="utf-8" standalone="no"?>
<!DOCTYPE svg PUBLIC "-//W3C//DTD SVG 1.1//EN"
  "http://www.w3.org/Graphics/SVG/1.1/DTD/svg11.dtd">
<svg xmlns:xlink="http://www.w3.org/1999/xlink" width="240.48pt" height="162pt" viewBox="0 0 240.48 162" xmlns="http://www.w3.org/2000/svg" version="1.1">
 <metadata>
  <rdf:RDF xmlns:dc="http://purl.org/dc/elements/1.1/" xmlns:cc="http://creativecommons.org/ns#" xmlns:rdf="http://www.w3.org/1999/02/22-rdf-syntax-ns#">
   <cc:Work>
    <dc:type rdf:resource="http://purl.org/dc/dcmitype/StillImage"/>
    <dc:date>2023-05-05T09:04:23.390764</dc:date>
    <dc:format>image/svg+xml</dc:format>
    <dc:creator>
     <cc:Agent>
      <dc:title>Matplotlib v3.6.1, https://matplotlib.org/</dc:title>
     </cc:Agent>
    </dc:creator>
   </cc:Work>
  </rdf:RDF>
 </metadata>
 <defs>
  <style type="text/css">*{stroke-linejoin: round; stroke-linecap: butt}</style>
 </defs>
 <g id="figure_1">
  <g id="patch_1">
   <path d="M 0 162 
L 240.48 162 
L 240.48 0 
L 0 0 
z
" style="fill: #ffffff"/>
  </g>
  <g id="axes_1">
   <g id="patch_2">
    <path d="M 50.222467 131.74 
L 233.466 131.74 
L 233.466 0 
L 50.222467 0 
z
" style="fill: #ffffff"/>
   </g>
   <g id="matplotlib.axis_1">
    <g id="xtick_1">
     <g id="line2d_1">
      <path d="M 50.222467 131.74 
L 50.222467 0 
" clip-path="url(#p0d88f3dc54)" style="fill: none; stroke: #b0b0b0; stroke-width: 0.8; stroke-linecap: square"/>
     </g>
     <g id="line2d_2">
      <defs>
       <path id="mbf8400f076" d="M 0 0 
L 0 3.5 
" style="stroke: #000000; stroke-width: 0.8"/>
      </defs>
      <g>
       <use xlink:href="#mbf8400f076" x="50.222467" y="131.74" style="stroke: #000000; stroke-width: 0.8"/>
      </g>
     </g>
     <g id="text_1">
      <!-- 0.0 -->
      <g transform="translate(43.972467 145.569687) scale(0.1 -0.1)">
       <defs>
        <path id="STIXGeneral-Regular-30" d="M 3046 2112 
Q 3046 1683 2963 1302 
Q 2880 922 2717 602 
Q 2554 282 2266 96 
Q 1978 -90 1600 -90 
Q 1210 -90 915 108 
Q 621 307 461 640 
Q 301 973 227 1350 
Q 154 1728 154 2150 
Q 154 2746 301 3222 
Q 448 3699 790 4012 
Q 1133 4326 1626 4326 
Q 2253 4326 2649 3712 
Q 3046 3098 3046 2112 
z
M 2432 2080 
Q 2432 3091 2217 3625 
Q 2003 4160 1587 4160 
Q 1190 4160 979 3622 
Q 768 3085 768 2106 
Q 768 1120 979 598 
Q 1190 77 1600 77 
Q 2003 77 2217 598 
Q 2432 1120 2432 2080 
z
" transform="scale(0.015625)"/>
        <path id="STIXGeneral-Regular-2e" d="M 1158 275 
Q 1158 134 1052 32 
Q 947 -70 800 -70 
Q 653 -70 550 32 
Q 448 134 448 281 
Q 448 429 553 534 
Q 659 640 806 640 
Q 947 640 1052 531 
Q 1158 422 1158 275 
z
" transform="scale(0.015625)"/>
       </defs>
       <use xlink:href="#STIXGeneral-Regular-30"/>
       <use xlink:href="#STIXGeneral-Regular-2e" x="49.999985"/>
       <use xlink:href="#STIXGeneral-Regular-30" x="74.999969"/>
      </g>
     </g>
    </g>
    <g id="xtick_2">
     <g id="line2d_3">
      <path d="M 86.871173 131.74 
L 86.871173 0 
" clip-path="url(#p0d88f3dc54)" style="fill: none; stroke: #b0b0b0; stroke-width: 0.8; stroke-linecap: square"/>
     </g>
     <g id="line2d_4">
      <g>
       <use xlink:href="#mbf8400f076" x="86.871173" y="131.74" style="stroke: #000000; stroke-width: 0.8"/>
      </g>
     </g>
     <g id="text_2">
      <!-- 0.2 -->
      <g transform="translate(80.621173 145.569687) scale(0.1 -0.1)">
       <defs>
        <path id="STIXGeneral-Regular-32" d="M 3034 877 
L 2688 0 
L 186 0 
L 186 77 
L 1325 1286 
Q 1773 1754 1965 2144 
Q 2157 2534 2157 2950 
Q 2157 3379 1920 3616 
Q 1683 3853 1267 3853 
Q 922 3853 720 3673 
Q 518 3494 326 3021 
L 192 3053 
Q 301 3648 630 3987 
Q 960 4326 1523 4326 
Q 2054 4326 2380 4006 
Q 2707 3686 2707 3200 
Q 2707 2477 1888 1613 
L 832 486 
L 2330 486 
Q 2541 486 2665 569 
Q 2790 653 2944 915 
L 3034 877 
z
" transform="scale(0.015625)"/>
       </defs>
       <use xlink:href="#STIXGeneral-Regular-30"/>
       <use xlink:href="#STIXGeneral-Regular-2e" x="49.999985"/>
       <use xlink:href="#STIXGeneral-Regular-32" x="74.999969"/>
      </g>
     </g>
    </g>
    <g id="xtick_3">
     <g id="line2d_5">
      <path d="M 123.51988 131.74 
L 123.51988 0 
" clip-path="url(#p0d88f3dc54)" style="fill: none; stroke: #b0b0b0; stroke-width: 0.8; stroke-linecap: square"/>
     </g>
     <g id="line2d_6">
      <g>
       <use xlink:href="#mbf8400f076" x="123.51988" y="131.74" style="stroke: #000000; stroke-width: 0.8"/>
      </g>
     </g>
     <g id="text_3">
      <!-- 0.4 -->
      <g transform="translate(117.26988 145.569687) scale(0.1 -0.1)">
       <defs>
        <path id="STIXGeneral-Regular-34" d="M 3027 1069 
L 2368 1069 
L 2368 0 
L 1869 0 
L 1869 1069 
L 77 1069 
L 77 1478 
L 2086 4326 
L 2368 4326 
L 2368 1478 
L 3027 1478 
L 3027 1069 
z
M 1869 1478 
L 1869 3674 
L 333 1478 
L 1869 1478 
z
" transform="scale(0.015625)"/>
       </defs>
       <use xlink:href="#STIXGeneral-Regular-30"/>
       <use xlink:href="#STIXGeneral-Regular-2e" x="49.999985"/>
       <use xlink:href="#STIXGeneral-Regular-34" x="74.999969"/>
      </g>
     </g>
    </g>
    <g id="xtick_4">
     <g id="line2d_7">
      <path d="M 160.168587 131.74 
L 160.168587 0 
" clip-path="url(#p0d88f3dc54)" style="fill: none; stroke: #b0b0b0; stroke-width: 0.8; stroke-linecap: square"/>
     </g>
     <g id="line2d_8">
      <g>
       <use xlink:href="#mbf8400f076" x="160.168587" y="131.74" style="stroke: #000000; stroke-width: 0.8"/>
      </g>
     </g>
     <g id="text_4">
      <!-- 0.6 -->
      <g transform="translate(153.918587 145.569687) scale(0.1 -0.1)">
       <defs>
        <path id="STIXGeneral-Regular-36" d="M 2854 4378 
L 2867 4275 
Q 2112 4154 1606 3664 
Q 1101 3174 973 2451 
Q 1344 2739 1786 2739 
Q 2349 2739 2672 2380 
Q 2995 2022 2995 1402 
Q 2995 774 2669 378 
Q 2291 -90 1651 -90 
Q 870 -90 518 557 
Q 218 1107 218 1786 
Q 218 2835 915 3552 
Q 1312 3962 1731 4131 
Q 2150 4301 2854 4378 
z
M 2419 1203 
Q 2419 2445 1555 2445 
Q 1235 2445 1024 2275 
Q 813 2106 813 1702 
Q 813 954 1046 522 
Q 1280 90 1722 90 
Q 2061 90 2240 394 
Q 2419 698 2419 1203 
z
" transform="scale(0.015625)"/>
       </defs>
       <use xlink:href="#STIXGeneral-Regular-30"/>
       <use xlink:href="#STIXGeneral-Regular-2e" x="49.999985"/>
       <use xlink:href="#STIXGeneral-Regular-36" x="74.999969"/>
      </g>
     </g>
    </g>
    <g id="xtick_5">
     <g id="line2d_9">
      <path d="M 196.817293 131.74 
L 196.817293 0 
" clip-path="url(#p0d88f3dc54)" style="fill: none; stroke: #b0b0b0; stroke-width: 0.8; stroke-linecap: square"/>
     </g>
     <g id="line2d_10">
      <g>
       <use xlink:href="#mbf8400f076" x="196.817293" y="131.74" style="stroke: #000000; stroke-width: 0.8"/>
      </g>
     </g>
     <g id="text_5">
      <!-- 0.8 -->
      <g transform="translate(190.567293 145.569687) scale(0.1 -0.1)">
       <defs>
        <path id="STIXGeneral-Regular-38" d="M 2848 992 
Q 2848 499 2505 204 
Q 2163 -90 1587 -90 
Q 1050 -90 704 204 
Q 358 499 358 954 
Q 358 1293 524 1533 
Q 691 1773 1190 2125 
Q 710 2522 553 2765 
Q 397 3008 397 3328 
Q 397 3782 745 4054 
Q 1094 4326 1638 4326 
Q 2106 4326 2410 4060 
Q 2714 3795 2714 3411 
Q 2714 3059 2531 2848 
Q 2349 2637 1856 2374 
Q 2432 1990 2640 1689 
Q 2848 1389 2848 992 
z
M 2272 3411 
Q 2272 3744 2086 3945 
Q 1901 4147 1574 4147 
Q 1248 4147 1059 3977 
Q 870 3808 870 3513 
Q 870 3219 1059 2979 
Q 1248 2739 1670 2490 
Q 1997 2682 2134 2896 
Q 2272 3110 2272 3411 
z
M 1734 1741 
L 1357 1997 
Q 1075 1766 960 1545 
Q 845 1325 845 1011 
Q 845 576 1065 333 
Q 1286 90 1658 90 
Q 1971 90 2166 285 
Q 2362 480 2362 794 
Q 2362 1082 2214 1299 
Q 2067 1517 1734 1741 
z
" transform="scale(0.015625)"/>
       </defs>
       <use xlink:href="#STIXGeneral-Regular-30"/>
       <use xlink:href="#STIXGeneral-Regular-2e" x="49.999985"/>
       <use xlink:href="#STIXGeneral-Regular-38" x="74.999969"/>
      </g>
     </g>
    </g>
    <g id="xtick_6">
     <g id="line2d_11">
      <path d="M 233.466 131.74 
L 233.466 0 
" clip-path="url(#p0d88f3dc54)" style="fill: none; stroke: #b0b0b0; stroke-width: 0.8; stroke-linecap: square"/>
     </g>
     <g id="line2d_12">
      <g>
       <use xlink:href="#mbf8400f076" x="233.466" y="131.74" style="stroke: #000000; stroke-width: 0.8"/>
      </g>
     </g>
     <g id="text_6">
      <!-- 1.0 -->
      <g transform="translate(227.216 145.569687) scale(0.1 -0.1)">
       <defs>
        <path id="STIXGeneral-Regular-31" d="M 2522 0 
L 755 0 
L 755 96 
Q 1107 115 1235 227 
Q 1363 339 1363 608 
L 1363 3482 
Q 1363 3795 1171 3795 
Q 1082 3795 883 3718 
L 710 3654 
L 710 3744 
L 1856 4326 
L 1914 4307 
L 1914 486 
Q 1914 275 2042 185 
Q 2170 96 2522 96 
L 2522 0 
z
" transform="scale(0.015625)"/>
       </defs>
       <use xlink:href="#STIXGeneral-Regular-31"/>
       <use xlink:href="#STIXGeneral-Regular-2e" x="49.999985"/>
       <use xlink:href="#STIXGeneral-Regular-30" x="74.999969"/>
      </g>
     </g>
    </g>
    <g id="text_7">
     <!-- $x$ -->
     <g transform="translate(139.594233 158.569687) scale(0.1 -0.1)">
      <defs>
       <path id="STIXGeneral-Italic-78" d="M 1555 2272 
L 1632 1907 
Q 1971 2426 2179 2624 
Q 2387 2822 2598 2822 
Q 2714 2822 2787 2755 
Q 2861 2688 2861 2585 
Q 2861 2483 2800 2419 
Q 2739 2355 2643 2355 
Q 2586 2355 2490 2409 
Q 2394 2464 2310 2464 
Q 2125 2464 1683 1690 
Q 1683 1606 1734 1402 
L 1939 544 
Q 2003 282 2131 282 
Q 2234 282 2432 538 
Q 2451 563 2476 598 
Q 2502 634 2521 662 
Q 2541 691 2566 717 
L 2662 659 
Q 2387 230 2227 80 
Q 2067 -70 1882 -70 
Q 1728 -70 1645 26 
Q 1562 122 1504 365 
L 1318 1126 
L 755 365 
Q 557 96 432 13 
Q 307 -70 147 -70 
Q 0 -70 -86 0 
Q -173 70 -173 198 
Q -173 294 -112 361 
Q -51 429 45 429 
Q 122 429 250 358 
Q 346 301 416 301 
Q 525 301 742 614 
L 1267 1357 
L 1088 2150 
Q 1024 2432 969 2509 
Q 915 2586 794 2586 
Q 717 2586 544 2541 
L 429 2509 
L 410 2611 
L 480 2637 
Q 992 2822 1229 2822 
Q 1350 2822 1420 2707 
Q 1491 2592 1555 2272 
z
" transform="scale(0.015625)"/>
      </defs>
      <use xlink:href="#STIXGeneral-Italic-78" transform="translate(0 0.90625)"/>
     </g>
    </g>
   </g>
   <g id="matplotlib.axis_2">
    <g id="ytick_1">
     <g id="line2d_13">
      <path d="M 50.222467 116.716406 
L 233.466 116.716406 
" clip-path="url(#p0d88f3dc54)" style="fill: none; stroke: #b0b0b0; stroke-width: 0.8; stroke-linecap: square"/>
     </g>
     <g id="line2d_14">
      <defs>
       <path id="m36d913cd6d" d="M 0 0 
L -3.5 0 
" style="stroke: #000000; stroke-width: 0.8"/>
      </defs>
      <g>
       <use xlink:href="#m36d913cd6d" x="50.222467" y="116.716406" style="stroke: #000000; stroke-width: 0.8"/>
      </g>
     </g>
     <g id="text_8">
      <!-- −1.25 -->
      <g transform="translate(18.872467 120.13125) scale(0.1 -0.1)">
       <defs>
        <path id="STIXGeneral-Regular-2212" d="M 3974 1408 
L 410 1408 
L 410 1830 
L 3974 1830 
L 3974 1408 
z
" transform="scale(0.015625)"/>
        <path id="STIXGeneral-Regular-35" d="M 2803 4358 
L 2573 3814 
Q 2534 3731 2400 3731 
L 1158 3731 
L 902 3187 
Q 1606 3053 1920 2896 
Q 2234 2739 2502 2368 
Q 2726 2061 2726 1555 
Q 2726 1094 2576 780 
Q 2426 467 2099 224 
Q 1664 -90 1011 -90 
Q 646 -90 422 19 
Q 198 128 198 307 
Q 198 550 486 550 
Q 717 550 960 352 
Q 1210 147 1414 147 
Q 1747 147 2012 480 
Q 2278 813 2278 1229 
Q 2278 1843 1850 2189 
Q 1293 2637 486 2637 
Q 410 2637 410 2688 
L 416 2720 
L 1114 4237 
L 2438 4237 
Q 2547 4237 2608 4269 
Q 2669 4301 2746 4403 
L 2803 4358 
z
" transform="scale(0.015625)"/>
       </defs>
       <use xlink:href="#STIXGeneral-Regular-2212"/>
       <use xlink:href="#STIXGeneral-Regular-31" x="68.499985"/>
       <use xlink:href="#STIXGeneral-Regular-2e" x="118.499969"/>
       <use xlink:href="#STIXGeneral-Regular-32" x="143.499954"/>
       <use xlink:href="#STIXGeneral-Regular-35" x="193.499939"/>
      </g>
     </g>
    </g>
    <g id="ytick_2">
     <g id="line2d_15">
      <path d="M 50.222467 94.570761 
L 233.466 94.570761 
" clip-path="url(#p0d88f3dc54)" style="fill: none; stroke: #b0b0b0; stroke-width: 0.8; stroke-linecap: square"/>
     </g>
     <g id="line2d_16">
      <g>
       <use xlink:href="#m36d913cd6d" x="50.222467" y="94.570761" style="stroke: #000000; stroke-width: 0.8"/>
      </g>
     </g>
     <g id="text_9">
      <!-- −1.00 -->
      <g transform="translate(18.872467 97.985605) scale(0.1 -0.1)">
       <use xlink:href="#STIXGeneral-Regular-2212"/>
       <use xlink:href="#STIXGeneral-Regular-31" x="68.499985"/>
       <use xlink:href="#STIXGeneral-Regular-2e" x="118.499969"/>
       <use xlink:href="#STIXGeneral-Regular-30" x="143.499954"/>
       <use xlink:href="#STIXGeneral-Regular-30" x="193.499939"/>
      </g>
     </g>
    </g>
    <g id="ytick_3">
     <g id="line2d_17">
      <path d="M 50.222467 72.425116 
L 233.466 72.425116 
" clip-path="url(#p0d88f3dc54)" style="fill: none; stroke: #b0b0b0; stroke-width: 0.8; stroke-linecap: square"/>
     </g>
     <g id="line2d_18">
      <g>
       <use xlink:href="#m36d913cd6d" x="50.222467" y="72.425116" style="stroke: #000000; stroke-width: 0.8"/>
      </g>
     </g>
     <g id="text_10">
      <!-- −0.75 -->
      <g transform="translate(18.872467 75.83996) scale(0.1 -0.1)">
       <defs>
        <path id="STIXGeneral-Regular-37" d="M 2874 4134 
L 1517 -51 
L 1101 -51 
L 2368 3763 
L 992 3763 
Q 717 3763 582 3667 
Q 448 3571 243 3238 
L 128 3296 
L 512 4237 
L 2874 4237 
L 2874 4134 
z
" transform="scale(0.015625)"/>
       </defs>
       <use xlink:href="#STIXGeneral-Regular-2212"/>
       <use xlink:href="#STIXGeneral-Regular-30" x="68.499985"/>
       <use xlink:href="#STIXGeneral-Regular-2e" x="118.499969"/>
       <use xlink:href="#STIXGeneral-Regular-37" x="143.499954"/>
       <use xlink:href="#STIXGeneral-Regular-35" x="193.499939"/>
      </g>
     </g>
    </g>
    <g id="ytick_4">
     <g id="line2d_19">
      <path d="M 50.222467 50.279471 
L 233.466 50.279471 
" clip-path="url(#p0d88f3dc54)" style="fill: none; stroke: #b0b0b0; stroke-width: 0.8; stroke-linecap: square"/>
     </g>
     <g id="line2d_20">
      <g>
       <use xlink:href="#m36d913cd6d" x="50.222467" y="50.279471" style="stroke: #000000; stroke-width: 0.8"/>
      </g>
     </g>
     <g id="text_11">
      <!-- −0.50 -->
      <g transform="translate(18.872467 53.694315) scale(0.1 -0.1)">
       <use xlink:href="#STIXGeneral-Regular-2212"/>
       <use xlink:href="#STIXGeneral-Regular-30" x="68.499985"/>
       <use xlink:href="#STIXGeneral-Regular-2e" x="118.499969"/>
       <use xlink:href="#STIXGeneral-Regular-35" x="143.499954"/>
       <use xlink:href="#STIXGeneral-Regular-30" x="193.499939"/>
      </g>
     </g>
    </g>
    <g id="ytick_5">
     <g id="line2d_21">
      <path d="M 50.222467 28.133827 
L 233.466 28.133827 
" clip-path="url(#p0d88f3dc54)" style="fill: none; stroke: #b0b0b0; stroke-width: 0.8; stroke-linecap: square"/>
     </g>
     <g id="line2d_22">
      <g>
       <use xlink:href="#m36d913cd6d" x="50.222467" y="28.133827" style="stroke: #000000; stroke-width: 0.8"/>
      </g>
     </g>
     <g id="text_12">
      <!-- −0.25 -->
      <g transform="translate(18.872467 31.54867) scale(0.1 -0.1)">
       <use xlink:href="#STIXGeneral-Regular-2212"/>
       <use xlink:href="#STIXGeneral-Regular-30" x="68.499985"/>
       <use xlink:href="#STIXGeneral-Regular-2e" x="118.499969"/>
       <use xlink:href="#STIXGeneral-Regular-32" x="143.499954"/>
       <use xlink:href="#STIXGeneral-Regular-35" x="193.499939"/>
      </g>
     </g>
    </g>
    <g id="ytick_6">
     <g id="line2d_23">
      <path d="M 50.222467 5.988182 
L 233.466 5.988182 
" clip-path="url(#p0d88f3dc54)" style="fill: none; stroke: #b0b0b0; stroke-width: 0.8; stroke-linecap: square"/>
     </g>
     <g id="line2d_24">
      <g>
       <use xlink:href="#m36d913cd6d" x="50.222467" y="5.988182" style="stroke: #000000; stroke-width: 0.8"/>
      </g>
     </g>
     <g id="text_13">
      <!-- 0.00 -->
      <g transform="translate(25.722467 9.403026) scale(0.1 -0.1)">
       <use xlink:href="#STIXGeneral-Regular-30"/>
       <use xlink:href="#STIXGeneral-Regular-2e" x="49.999985"/>
       <use xlink:href="#STIXGeneral-Regular-30" x="74.999969"/>
       <use xlink:href="#STIXGeneral-Regular-30" x="124.999954"/>
      </g>
     </g>
    </g>
    <g id="text_14">
     <!-- $y$ -->
     <g transform="translate(12.702154 68.12) rotate(-90) scale(0.1 -0.1)">
      <defs>
       <path id="STIXGeneral-Italic-79" d="M 1555 1190 
L 1690 486 
Q 2118 1190 2294 1558 
Q 2470 1926 2470 2131 
Q 2470 2234 2304 2336 
Q 2138 2445 2138 2586 
Q 2138 2688 2211 2755 
Q 2285 2822 2394 2822 
Q 2534 2822 2630 2720 
Q 2726 2618 2726 2470 
Q 2726 1914 1888 518 
Q 1389 -307 918 -812 
Q 448 -1318 173 -1318 
Q 26 -1318 -64 -1241 
Q -154 -1165 -154 -1043 
Q -154 -934 -80 -860 
Q -6 -787 96 -787 
Q 218 -787 314 -876 
Q 410 -966 486 -966 
Q 602 -966 794 -755 
Q 877 -672 1040 -457 
Q 1203 -243 1248 -173 
Q 1312 -45 1312 51 
Q 1312 243 1113 1046 
Q 915 1850 787 2176 
Q 698 2413 592 2499 
Q 486 2586 294 2586 
Q 192 2586 96 2560 
L 96 2669 
Q 237 2694 301 2707 
Q 563 2758 986 2822 
L 1011 2822 
Q 1082 2822 1277 2227 
Q 1472 1632 1555 1190 
z
" transform="scale(0.015625)"/>
      </defs>
      <use xlink:href="#STIXGeneral-Italic-79" transform="translate(0 0.90625)"/>
     </g>
    </g>
   </g>
   <g id="line2d_25">
    <defs>
     <path id="m07d3d0912c" d="M 0 3 
C 0.795609 3 1.55874 2.683901 2.12132 2.12132 
C 2.683901 1.55874 3 0.795609 3 0 
C 3 -0.795609 2.683901 -1.55874 2.12132 -2.12132 
C 1.55874 -2.683901 0.795609 -3 0 -3 
C -0.795609 -3 -1.55874 -2.683901 -2.12132 -2.12132 
C -2.683901 -1.55874 -3 -0.795609 -3 0 
C -3 0.795609 -2.683901 1.55874 -2.12132 2.12132 
C -1.55874 2.683901 -0.795609 3 0 3 
z
" style="stroke: #0000ff"/>
    </defs>
    <g clip-path="url(#p0d88f3dc54)">
     <use xlink:href="#m07d3d0912c" x="50.222467" y="5.988182" style="fill-opacity: 0; stroke: #0000ff"/>
     <use xlink:href="#m07d3d0912c" x="63.311291" y="119.045786" style="fill-opacity: 0; stroke: #0000ff"/>
     <use xlink:href="#m07d3d0912c" x="76.400115" y="27.189501" style="fill-opacity: 0; stroke: #0000ff"/>
     <use xlink:href="#m07d3d0912c" x="89.488941" y="70.960632" style="fill-opacity: 0; stroke: #0000ff"/>
     <use xlink:href="#m07d3d0912c" x="102.577764" y="67.093112" style="fill-opacity: 0; stroke: #0000ff"/>
     <use xlink:href="#m07d3d0912c" x="115.666587" y="23.615963" style="fill-opacity: 0; stroke: #0000ff"/>
     <use xlink:href="#m07d3d0912c" x="128.755416" y="88.975716" style="fill-opacity: 0; stroke: #0000ff"/>
     <use xlink:href="#m07d3d0912c" x="141.844228" y="5.988182" style="fill-opacity: 0; stroke: #0000ff"/>
     <use xlink:href="#m07d3d0912c" x="154.933051" y="76.947638" style="fill-opacity: 0; stroke: #0000ff"/>
     <use xlink:href="#m07d3d0912c" x="168.021879" y="18.85146" style="fill-opacity: 0; stroke: #0000ff"/>
     <use xlink:href="#m07d3d0912c" x="181.110708" y="43.887096" style="fill-opacity: 0; stroke: #0000ff"/>
     <use xlink:href="#m07d3d0912c" x="194.199525" y="40.019574" style="fill-opacity: 0; stroke: #0000ff"/>
     <use xlink:href="#m07d3d0912c" x="207.288354" y="15.277917" style="fill-opacity: 0; stroke: #0000ff"/>
     <use xlink:href="#m07d3d0912c" x="220.377172" y="46.877481" style="fill-opacity: 0; stroke: #0000ff"/>
    </g>
   </g>
   <g id="line2d_26">
    <path d="M 50.222467 6.274093 
L 56.08626 77.394283 
L 57.552209 92.007913 
L 58.65167 101.250246 
L 59.751131 108.726822 
L 60.484105 112.617013 
L 61.217079 115.565391 
L 61.950053 117.526717 
L 62.31654 118.12637 
L 62.683028 118.46815 
L 63.049514 118.550074 
L 63.416002 118.371422 
L 63.782488 117.932512 
L 64.148976 117.234864 
L 64.88195 115.075434 
L 65.614925 111.931297 
L 66.347899 107.86275 
L 67.44736 100.216942 
L 68.913308 87.760503 
L 74.044128 41.05466 
L 75.143589 33.830064 
L 76.243049 28.385059 
L 76.976025 25.814196 
L 77.708998 24.106032 
L 78.075486 23.572886 
L 78.441973 23.250007 
L 78.808458 23.133384 
L 79.174946 23.217863 
L 79.541434 23.497446 
L 79.907919 23.965544 
L 80.640895 25.436153 
L 81.373868 27.562403 
L 82.473331 31.81351 
L 83.572792 37.087867 
L 85.405225 47.343314 
L 89.070098 68.503953 
L 90.536047 75.555303 
L 91.635507 79.890171 
L 92.734968 83.264217 
L 93.467944 84.934894 
L 94.200916 86.12159 
L 94.933892 86.813895 
L 95.300377 86.973053 
L 95.666865 87.007584 
L 96.03335 86.91791 
L 96.766326 86.369282 
L 97.499301 85.337837 
L 98.232277 83.839455 
L 98.965247 81.895511 
L 100.06471 78.203866 
L 101.164174 73.682194 
L 102.63012 66.60191 
L 104.829041 54.546006 
L 107.760938 38.315642 
L 109.226889 31.330248 
L 110.326347 27.030946 
L 111.425811 23.778529 
L 112.158786 22.29001 
L 112.891756 21.405917 
L 113.258244 21.204434 
L 113.624732 21.169692 
L 113.99122 21.305619 
L 114.357708 21.61534 
L 115.090678 22.764971 
L 115.823653 24.62657 
L 116.556629 27.191794 
L 117.289605 30.433399 
L 118.389063 36.453747 
L 119.855014 46.220747 
L 124.252857 77.71524 
L 125.35232 83.402308 
L 126.085296 86.212711 
L 126.818266 88.121587 
L 127.184754 88.714217 
L 127.551242 89.056504 
L 127.917729 89.143507 
L 128.284217 88.972184 
L 128.650705 88.541172 
L 129.017187 87.851191 
L 129.750163 85.705077 
L 130.483139 82.573919 
L 131.216114 78.525952 
L 132.315572 70.950167 
L 133.781523 58.731071 
L 137.812878 23.171938 
L 138.912342 15.799018 
L 139.645317 11.955586 
L 140.378288 9.096935 
L 141.111263 7.300913 
L 141.477751 6.817398 
L 141.844228 6.614744 
L 142.210716 6.693668 
L 142.577198 7.052957 
L 142.943691 7.689242 
L 143.676667 9.768173 
L 144.409643 12.860788 
L 145.142618 16.864551 
L 146.242076 24.280766 
L 147.708027 35.913938 
L 150.273437 56.74005 
L 151.372895 64.223574 
L 152.472352 70.123688 
L 153.205328 73.017683 
L 153.938304 75.013804 
L 154.304786 75.666868 
L 154.671279 76.08921 
L 155.037762 76.282488 
L 155.404255 76.24991 
L 155.770737 75.996336 
L 156.137231 75.527953 
L 156.870195 73.978747 
L 157.603171 71.677383 
L 158.336147 68.715615 
L 159.435604 63.266523 
L 160.901556 54.734552 
L 164.199941 34.835501 
L 165.665892 27.540629 
L 166.76535 23.194008 
L 167.864808 19.951506 
L 168.597783 18.430854 
L 169.330759 17.423981 
L 170.063735 16.919462 
L 170.430217 16.849303 
L 170.79671 16.896157 
L 171.529686 17.324887 
L 172.262661 18.169582 
L 172.995626 19.388898 
L 174.095095 21.819177 
L 175.194553 24.821717 
L 177.026987 30.62223 
L 180.325371 41.323831 
L 181.791323 45.326041 
L 182.890781 47.7814 
L 183.990239 49.679093 
L 184.723214 50.60688 
L 185.45619 51.252743 
L 186.189165 51.611567 
L 186.922141 51.683226 
L 187.655117 51.471659 
L 188.388092 50.985472 
L 189.121068 50.236907 
L 190.220526 48.658297 
L 191.319984 46.593996 
L 192.785935 43.228398 
L 194.618369 38.349531 
L 199.016211 26.228111 
L 200.482163 22.821042 
L 201.948114 20.019794 
L 203.047572 18.387822 
L 204.14703 17.196677 
L 204.880005 16.658407 
L 205.612981 16.329248 
L 206.345957 16.210531 
L 207.078932 16.301594 
L 207.811908 16.599976 
L 208.544884 17.101726 
L 209.644342 18.223448 
L 210.7438 19.766878 
L 211.843257 21.703882 
L 213.309209 24.843182 
L 214.77516 28.542475 
L 216.607594 33.821247 
L 218.80652 40.88963 
L 222.104905 52.405774 
L 229.43464 78.31447 
L 232.366542 87.773079 
L 233.466 91.111011 
L 233.466 91.111011 
" clip-path="url(#p0d88f3dc54)" style="fill: none; stroke: #ff0000; stroke-width: 1.5; stroke-linecap: square"/>
   </g>
   <g id="line2d_27">
    <path d="M 50.222467 5.988182 
L 50.588954 6.30399 
L 50.955441 7.246439 
L 51.321928 8.803352 
L 52.054902 13.681219 
L 52.787876 20.720851 
L 53.887338 34.651585 
L 55.353286 57.399905 
L 57.918696 98.031451 
L 59.018156 111.637469 
L 59.751131 118.446503 
L 60.484105 123.119845 
L 60.850592 124.594953 
L 61.217079 125.474938 
L 61.583566 125.751818 
L 61.950053 125.42367 
L 62.31654 124.494698 
L 62.683028 122.975122 
L 63.416002 118.234809 
L 64.148976 111.399767 
L 65.248437 97.852324 
L 66.714385 75.629407 
L 69.279795 35.425723 
L 70.379257 21.644377 
L 71.112231 14.569113 
L 71.845205 9.505522 
L 72.211692 7.789062 
L 72.578179 6.63768 
L 72.944666 6.060358 
L 73.311152 6.060248 
L 73.67764 6.634675 
L 74.044128 7.775166 
L 74.410613 9.46754 
L 75.143589 14.423959 
L 75.876561 21.284259 
L 76.976025 34.482146 
L 78.441973 55.50547 
L 80.640895 87.296043 
L 81.740355 100.155579 
L 82.473331 106.762053 
L 83.206304 111.479261 
L 83.572792 113.068447 
L 83.93928 114.122618 
L 84.305765 114.631962 
L 84.672252 114.592183 
L 85.03874 114.0046 
L 85.405225 112.876057 
L 86.138201 109.050312 
L 86.871174 103.275449 
L 87.604149 95.789211 
L 88.70361 82.033766 
L 90.902534 50.204784 
L 92.36848 30.334186 
L 93.467944 18.384996 
L 94.200916 12.421126 
L 94.933892 8.327543 
L 95.300377 7.030505 
L 95.666865 6.248974 
L 96.03335 5.988182 
L 96.399838 6.248088 
L 96.766326 7.023384 
L 97.132813 8.303594 
L 97.865789 12.311621 
L 98.598759 18.090412 
L 99.698223 29.511908 
L 101.164174 48.127999 
L 103.729583 81.262383 
L 104.829041 92.304989 
L 105.562017 97.807635 
L 106.294992 101.559978 
L 106.66148 102.731383 
L 107.027962 103.416613 
L 107.39445 103.609679 
L 107.760938 103.309483 
L 108.127426 102.519954 
L 108.493914 101.249929 
L 109.226889 97.327763 
L 109.959859 91.7072 
L 111.059323 80.613305 
L 112.525269 62.481703 
L 115.090678 29.808775 
L 116.190141 18.643256 
L 116.923117 12.919198 
L 117.656093 8.827106 
L 118.022575 7.441198 
L 118.389063 6.512018 
L 118.75555 6.046371 
L 119.122038 6.046263 
L 119.488526 6.509029 
L 119.855014 7.427305 
L 120.587984 10.578296 
L 121.32096 15.351817 
L 122.053935 21.53638 
L 123.153399 32.863126 
L 127.184754 78.092179 
L 127.917729 83.987747 
L 128.650705 88.463278 
L 129.383675 91.343265 
L 129.750163 92.147889 
L 130.116651 92.51777 
L 130.483139 92.450034 
L 130.849626 91.94627 
L 131.216114 91.01245 
L 131.949084 87.900067 
L 132.68206 83.244497 
L 133.415036 77.238478 
L 134.514494 66.246317 
L 138.912342 18.60973 
L 139.645317 13.227374 
L 140.378288 9.246361 
L 141.111263 6.807443 
L 141.477751 6.193067 
L 141.844228 5.988182 
L 142.210716 6.192178 
L 142.577198 6.800301 
L 142.943691 7.803795 
L 143.676667 10.941966 
L 144.409643 15.459989 
L 145.509101 24.372138 
L 146.975052 38.855953 
L 149.173968 61.194408 
L 150.273437 70.411946 
L 151.006401 75.232119 
L 151.739377 78.763143 
L 152.472352 80.867761 
L 152.838846 81.358283 
L 153.205328 81.467535 
L 153.57181 81.195312 
L 153.938304 80.545226 
L 154.304786 79.524778 
L 155.037762 76.420822 
L 155.770737 72.014607 
L 156.870195 63.374387 
L 158.336147 49.334155 
L 160.901556 24.19186 
L 162.001014 15.642248 
L 162.733989 11.269337 
L 163.466965 8.148756 
L 163.833458 7.093313 
L 164.199941 6.386377 
L 164.566423 6.03239 
L 164.932916 6.032276 
L 165.299399 6.383355 
L 165.665892 7.079421 
L 166.398867 9.464412 
L 167.131843 13.07069 
L 167.864808 17.733736 
L 168.964277 26.251508 
L 172.995626 59.9612 
L 173.728602 64.295049 
L 174.461577 67.556263 
L 175.194553 69.618082 
L 175.561035 70.173151 
L 175.927529 70.403578 
L 176.294011 70.3079 
L 176.660504 69.887939 
L 177.026987 69.148891 
L 177.759962 66.749811 
L 178.492938 63.213629 
L 179.592396 56.110777 
L 181.058347 44.336215 
L 183.623756 22.753572 
L 184.723214 15.217675 
L 185.45619 11.273474 
L 186.189165 8.363119 
L 186.922141 6.584388 
L 187.288623 6.137169 
L 187.655117 5.988182 
L 188.021599 6.136275 
L 188.388092 6.577273 
L 188.754575 7.30403 
L 189.48755 9.572319 
L 190.220526 12.829545 
L 191.319984 19.23247 
L 192.785935 29.583968 
L 194.984851 45.407043 
L 196.08432 51.861302 
L 196.817296 55.201261 
L 197.550271 57.612892 
L 198.283236 59.004186 
L 198.649729 59.299957 
L 199.016211 59.325386 
L 199.382705 59.081115 
L 199.749187 58.570492 
L 200.482163 56.776957 
L 201.215138 54.023572 
L 201.948114 50.426755 
L 203.047572 43.782902 
L 205.246499 28.314773 
L 206.712439 18.574894 
L 207.811908 12.641104 
L 208.544884 9.619375 
L 209.277848 7.470355 
L 210.010824 6.260713 
L 210.377317 6.0184 
L 210.7438 6.01829 
L 211.110293 6.257702 
L 211.476775 6.731552 
L 212.209751 8.350554 
L 212.942726 10.789601 
L 214.042184 15.721342 
L 215.508136 23.865081 
L 218.073545 38.441508 
L 219.173003 43.301 
L 219.905978 45.722176 
L 220.638954 47.37502 
L 221.005436 47.892902 
L 221.37193 48.198441 
L 221.738412 48.289396 
L 222.104905 48.16574 
L 222.471388 47.829619 
L 222.83787 47.285301 
L 223.570846 45.599537 
L 224.303821 43.182684 
L 225.403279 38.417434 
L 226.86923 30.644641 
L 229.43464 16.645681 
L 230.534108 11.825474 
L 231.267073 9.319458 
L 232.000049 7.479885 
L 232.733024 6.361323 
L 233.099518 6.081251 
L 233.466 5.988182 
L 233.466 5.988182 
" clip-path="url(#p0d88f3dc54)" style="fill: none; stroke-dasharray: 1.5,2.475; stroke-dashoffset: 0; stroke: #000000; stroke-width: 1.5"/>
   </g>
   <g id="patch_3">
    <path d="M 50.222467 131.74 
L 50.222467 -0 
" style="fill: none; stroke: #000000; stroke-width: 0.8; stroke-linejoin: miter; stroke-linecap: square"/>
   </g>
   <g id="patch_4">
    <path d="M 233.466 131.74 
L 233.466 -0 
" style="fill: none; stroke: #000000; stroke-width: 0.8; stroke-linejoin: miter; stroke-linecap: square"/>
   </g>
   <g id="patch_5">
    <path d="M 50.222467 131.74 
L 233.466 131.74 
" style="fill: none; stroke: #000000; stroke-width: 0.8; stroke-linejoin: miter; stroke-linecap: square"/>
   </g>
   <g id="patch_6">
    <path d="M 50.222467 0 
L 233.466 0 
" style="fill: none; stroke: #000000; stroke-width: 0.8; stroke-linejoin: miter; stroke-linecap: square"/>
   </g>
   <g id="legend_1">
    <g id="patch_7">
     <path d="M 176.686312 126.74 
L 226.466 126.74 
Q 228.466 126.74 228.466 124.74 
L 228.466 82.49 
Q 228.466 80.49 226.466 80.49 
L 176.686312 80.49 
Q 174.686312 80.49 174.686312 82.49 
L 174.686312 124.74 
Q 174.686312 126.74 176.686312 126.74 
z
" style="fill: #ffffff; opacity: 0.8; stroke: #cccccc; stroke-linejoin: miter"/>
    </g>
    <g id="line2d_28">
     <g>
      <use xlink:href="#m07d3d0912c" x="188.686312" y="87.99" style="fill-opacity: 0; stroke: #0000ff"/>
     </g>
    </g>
    <g id="text_15">
     <!-- high -->
     <g transform="translate(206.686312 91.49) scale(0.1 -0.1)">
      <defs>
       <path id="STIXGeneral-Regular-68" d="M 3117 0 
L 1760 0 
L 1760 96 
Q 2042 128 2118 224 
Q 2195 320 2195 653 
L 2195 1920 
Q 2195 2598 1722 2598 
Q 1530 2598 1370 2508 
Q 1210 2419 1005 2195 
L 1005 653 
Q 1005 320 1081 224 
Q 1158 128 1440 96 
L 1440 0 
L 58 0 
L 58 96 
Q 333 134 400 224 
Q 467 314 467 653 
L 467 3667 
Q 467 3872 406 3933 
Q 346 3994 141 3994 
Q 83 3994 64 3987 
L 64 4090 
L 237 4141 
Q 730 4288 973 4371 
L 1005 4352 
L 1005 2406 
Q 1229 2694 1446 2819 
Q 1664 2944 1946 2944 
Q 2733 2944 2733 1926 
L 2733 653 
Q 2733 320 2793 233 
Q 2854 147 3117 96 
L 3117 0 
z
" transform="scale(0.015625)"/>
       <path id="STIXGeneral-Regular-69" d="M 1152 4045 
Q 1152 3904 1056 3811 
Q 960 3718 819 3718 
Q 685 3718 592 3811 
Q 499 3904 499 4045 
Q 499 4179 595 4275 
Q 691 4371 826 4371 
Q 966 4371 1059 4275 
Q 1152 4179 1152 4045 
z
M 1619 0 
L 102 0 
L 102 96 
Q 435 115 521 211 
Q 608 307 608 666 
L 608 2118 
Q 608 2342 563 2432 
Q 518 2522 397 2522 
Q 243 2522 128 2490 
L 128 2592 
L 1120 2944 
L 1146 2918 
L 1146 672 
Q 1146 314 1226 218 
Q 1306 122 1619 96 
L 1619 0 
z
" transform="scale(0.015625)"/>
       <path id="STIXGeneral-Regular-67" d="M 3008 2483 
L 2477 2483 
Q 2598 2208 2598 1946 
Q 2598 1453 2265 1203 
Q 1933 954 1600 954 
Q 1530 954 1357 973 
L 1235 986 
Q 1107 947 979 812 
Q 851 678 851 582 
Q 851 435 1350 410 
L 2176 371 
Q 2528 358 2739 172 
Q 2950 -13 2950 -314 
Q 2950 -685 2566 -986 
Q 2035 -1395 1286 -1395 
Q 826 -1395 502 -1212 
Q 179 -1030 179 -774 
Q 179 -595 320 -419 
Q 461 -243 806 6 
Q 602 102 534 172 
Q 467 243 467 346 
Q 467 531 762 787 
Q 909 915 1037 1043 
Q 717 1203 579 1401 
Q 442 1600 442 1901 
Q 442 2336 752 2640 
Q 1062 2944 1510 2944 
Q 1766 2944 2022 2848 
L 2163 2797 
Q 2349 2733 2515 2733 
L 3008 2733 
L 3008 2483 
z
M 973 2163 
L 973 2144 
Q 973 1683 1155 1398 
Q 1338 1114 1632 1114 
Q 1850 1114 1978 1270 
Q 2106 1427 2106 1690 
Q 2106 2112 1914 2464 
Q 1754 2765 1446 2765 
Q 1222 2765 1097 2605 
Q 973 2445 973 2163 
z
M 2771 -410 
Q 2771 -230 2595 -163 
Q 2419 -96 1978 -96 
Q 1344 -96 941 -13 
Q 749 -243 688 -348 
Q 627 -454 627 -563 
Q 627 -774 880 -902 
Q 1133 -1030 1555 -1030 
Q 2099 -1030 2435 -860 
Q 2771 -691 2771 -410 
z
" transform="scale(0.015625)"/>
      </defs>
      <use xlink:href="#STIXGeneral-Regular-68"/>
      <use xlink:href="#STIXGeneral-Regular-69" x="49.999985"/>
      <use xlink:href="#STIXGeneral-Regular-67" x="77.799973"/>
      <use xlink:href="#STIXGeneral-Regular-68" x="127.799957"/>
     </g>
    </g>
    <g id="line2d_29">
     <path d="M 178.686312 102.169687 
L 188.686312 102.169687 
L 198.686312 102.169687 
" style="fill: none; stroke: #ff0000; stroke-width: 1.5; stroke-linecap: square"/>
    </g>
    <g id="text_16">
     <!-- $y_{\mathrm{high}}$ -->
     <g transform="translate(206.686312 105.669687) scale(0.1 -0.1)">
      <use xlink:href="#STIXGeneral-Italic-79" transform="translate(0 0.90625)"/>
      <use xlink:href="#STIXGeneral-Regular-68" transform="translate(44.399994 -12.321875) scale(0.7)"/>
      <use xlink:href="#STIXGeneral-Regular-69" transform="translate(79.399983 -12.321875) scale(0.7)"/>
      <use xlink:href="#STIXGeneral-Regular-67" transform="translate(98.859975 -12.321875) scale(0.7)"/>
      <use xlink:href="#STIXGeneral-Regular-68" transform="translate(133.859964 -12.321875) scale(0.7)"/>
     </g>
    </g>
    <g id="line2d_30">
     <path d="M 178.686312 117.069687 
L 188.686312 117.069687 
L 198.686312 117.069687 
" style="fill: none; stroke-dasharray: 1.5,2.475; stroke-dashoffset: 0; stroke: #000000; stroke-width: 1.5"/>
    </g>
    <g id="text_17">
     <!-- true -->
     <g transform="translate(206.686312 120.569687) scale(0.1 -0.1)">
      <defs>
       <path id="STIXGeneral-Regular-74" d="M 1702 493 
L 1786 422 
Q 1478 -64 1011 -64 
Q 448 -64 448 749 
L 448 2675 
L 109 2675 
Q 83 2694 83 2720 
Q 83 2771 192 2842 
Q 435 2982 813 3526 
Q 826 3546 874 3606 
Q 922 3667 941 3706 
Q 986 3706 986 3622 
L 986 2880 
L 1632 2880 
L 1632 2675 
L 986 2675 
L 986 845 
Q 986 538 1062 403 
Q 1139 269 1318 269 
Q 1510 269 1702 493 
z
" transform="scale(0.015625)"/>
       <path id="STIXGeneral-Regular-72" d="M 1024 2931 
L 1024 2342 
Q 1267 2688 1430 2816 
Q 1594 2944 1792 2944 
Q 1958 2944 2051 2854 
Q 2144 2765 2144 2605 
Q 2144 2470 2077 2393 
Q 2010 2317 1894 2317 
Q 1773 2317 1638 2445 
Q 1536 2541 1472 2541 
Q 1338 2541 1181 2355 
Q 1024 2170 1024 2016 
L 1024 576 
Q 1024 301 1133 205 
Q 1242 109 1568 96 
L 1568 0 
L 32 0 
L 32 96 
Q 339 154 412 224 
Q 486 294 486 538 
L 486 2138 
Q 486 2349 438 2435 
Q 390 2522 269 2522 
Q 166 2522 45 2496 
L 45 2598 
Q 448 2726 992 2944 
L 1024 2931 
z
" transform="scale(0.015625)"/>
       <path id="STIXGeneral-Regular-75" d="M 3072 320 
L 3072 230 
Q 2573 96 2195 -58 
L 2163 -38 
L 2163 486 
L 2150 486 
Q 1747 -64 1235 -64 
Q 870 -64 662 160 
Q 454 384 454 755 
L 454 2362 
Q 454 2598 371 2688 
Q 288 2778 58 2790 
L 58 2880 
L 992 2880 
L 992 813 
Q 992 595 1123 451 
Q 1254 307 1446 307 
Q 1760 307 1984 506 
Q 2067 582 2099 649 
Q 2131 717 2131 877 
L 2131 2355 
Q 2131 2605 2041 2678 
Q 1952 2752 1658 2771 
L 1658 2880 
L 2669 2880 
L 2669 685 
Q 2669 461 2742 390 
Q 2816 320 3034 320 
L 3072 320 
z
" transform="scale(0.015625)"/>
       <path id="STIXGeneral-Regular-65" d="M 2611 1050 
L 2714 1005 
Q 2330 -64 1376 -64 
Q 813 -64 486 329 
Q 160 723 160 1389 
Q 160 2074 525 2509 
Q 890 2944 1485 2944 
Q 2061 2944 2374 2502 
Q 2560 2246 2592 1773 
L 621 1773 
Q 646 1370 700 1158 
Q 755 947 915 730 
Q 1184 378 1626 378 
Q 1939 378 2153 531 
Q 2368 685 2611 1050 
z
M 634 1978 
L 1939 1978 
Q 1882 2381 1750 2547 
Q 1619 2714 1312 2714 
Q 1043 2714 864 2525 
Q 685 2336 634 1978 
z
" transform="scale(0.015625)"/>
      </defs>
      <use xlink:href="#STIXGeneral-Regular-74"/>
      <use xlink:href="#STIXGeneral-Regular-72" x="27.799988"/>
      <use xlink:href="#STIXGeneral-Regular-75" x="61.099976"/>
      <use xlink:href="#STIXGeneral-Regular-65" x="111.09996"/>
     </g>
    </g>
   </g>
  </g>
 </g>
 <defs>
  <clipPath id="p0d88f3dc54">
   <rect x="50.222467" y="0" width="183.243533" height="131.74"/>
  </clipPath>
 </defs>
</svg>
