<?xml version="1.0" encoding="utf-8" standalone="no"?>
<!DOCTYPE svg PUBLIC "-//W3C//DTD SVG 1.1//EN"
  "http://www.w3.org/Graphics/SVG/1.1/DTD/svg11.dtd">
<svg xmlns:xlink="http://www.w3.org/1999/xlink" width="240.48pt" height="162pt" viewBox="0 0 240.48 162" xmlns="http://www.w3.org/2000/svg" version="1.1">
 <metadata>
  <rdf:RDF xmlns:dc="http://purl.org/dc/elements/1.1/" xmlns:cc="http://creativecommons.org/ns#" xmlns:rdf="http://www.w3.org/1999/02/22-rdf-syntax-ns#">
   <cc:Work>
    <dc:type rdf:resource="http://purl.org/dc/dcmitype/StillImage"/>
    <dc:date>2023-05-05T09:04:04.559854</dc:date>
    <dc:format>image/svg+xml</dc:format>
    <dc:creator>
     <cc:Agent>
      <dc:title>Matplotlib v3.6.1, https://matplotlib.org/</dc:title>
     </cc:Agent>
    </dc:creator>
   </cc:Work>
  </rdf:RDF>
 </metadata>
 <defs>
  <style type="text/css">*{stroke-linejoin: round; stroke-linecap: butt}</style>
 </defs>
 <g id="figure_1">
  <g id="patch_1">
   <path d="M 0 162 
L 240.48 162 
L 240.48 0 
L 0 0 
z
" style="fill: #ffffff"/>
  </g>
  <g id="axes_1">
   <g id="patch_2">
    <path d="M 44.611267 131.74 
L 233.466 131.74 
L 233.466 0 
L 44.611267 0 
z
" style="fill: #ffffff"/>
   </g>
   <g id="matplotlib.axis_1">
    <g id="xtick_1">
     <g id="line2d_1">
      <path d="M 44.611267 131.74 
L 44.611267 0 
" clip-path="url(#pf91ce7b854)" style="fill: none; stroke: #b0b0b0; stroke-width: 0.8; stroke-linecap: square"/>
     </g>
     <g id="line2d_2">
      <defs>
       <path id="maec1ab88b3" d="M 0 0 
L 0 3.5 
" style="stroke: #000000; stroke-width: 0.8"/>
      </defs>
      <g>
       <use xlink:href="#maec1ab88b3" x="44.611267" y="131.74" style="stroke: #000000; stroke-width: 0.8"/>
      </g>
     </g>
     <g id="text_1">
      <!-- 0.0 -->
      <g transform="translate(38.361267 145.569687) scale(0.1 -0.1)">
       <defs>
        <path id="STIXGeneral-Regular-30" d="M 3046 2112 
Q 3046 1683 2963 1302 
Q 2880 922 2717 602 
Q 2554 282 2266 96 
Q 1978 -90 1600 -90 
Q 1210 -90 915 108 
Q 621 307 461 640 
Q 301 973 227 1350 
Q 154 1728 154 2150 
Q 154 2746 301 3222 
Q 448 3699 790 4012 
Q 1133 4326 1626 4326 
Q 2253 4326 2649 3712 
Q 3046 3098 3046 2112 
z
M 2432 2080 
Q 2432 3091 2217 3625 
Q 2003 4160 1587 4160 
Q 1190 4160 979 3622 
Q 768 3085 768 2106 
Q 768 1120 979 598 
Q 1190 77 1600 77 
Q 2003 77 2217 598 
Q 2432 1120 2432 2080 
z
" transform="scale(0.015625)"/>
        <path id="STIXGeneral-Regular-2e" d="M 1158 275 
Q 1158 134 1052 32 
Q 947 -70 800 -70 
Q 653 -70 550 32 
Q 448 134 448 281 
Q 448 429 553 534 
Q 659 640 806 640 
Q 947 640 1052 531 
Q 1158 422 1158 275 
z
" transform="scale(0.015625)"/>
       </defs>
       <use xlink:href="#STIXGeneral-Regular-30"/>
       <use xlink:href="#STIXGeneral-Regular-2e" x="49.999985"/>
       <use xlink:href="#STIXGeneral-Regular-30" x="74.999969"/>
      </g>
     </g>
    </g>
    <g id="xtick_2">
     <g id="line2d_3">
      <path d="M 82.382213 131.74 
L 82.382213 0 
" clip-path="url(#pf91ce7b854)" style="fill: none; stroke: #b0b0b0; stroke-width: 0.8; stroke-linecap: square"/>
     </g>
     <g id="line2d_4">
      <g>
       <use xlink:href="#maec1ab88b3" x="82.382213" y="131.74" style="stroke: #000000; stroke-width: 0.8"/>
      </g>
     </g>
     <g id="text_2">
      <!-- 0.2 -->
      <g transform="translate(76.132213 145.569687) scale(0.1 -0.1)">
       <defs>
        <path id="STIXGeneral-Regular-32" d="M 3034 877 
L 2688 0 
L 186 0 
L 186 77 
L 1325 1286 
Q 1773 1754 1965 2144 
Q 2157 2534 2157 2950 
Q 2157 3379 1920 3616 
Q 1683 3853 1267 3853 
Q 922 3853 720 3673 
Q 518 3494 326 3021 
L 192 3053 
Q 301 3648 630 3987 
Q 960 4326 1523 4326 
Q 2054 4326 2380 4006 
Q 2707 3686 2707 3200 
Q 2707 2477 1888 1613 
L 832 486 
L 2330 486 
Q 2541 486 2665 569 
Q 2790 653 2944 915 
L 3034 877 
z
" transform="scale(0.015625)"/>
       </defs>
       <use xlink:href="#STIXGeneral-Regular-30"/>
       <use xlink:href="#STIXGeneral-Regular-2e" x="49.999985"/>
       <use xlink:href="#STIXGeneral-Regular-32" x="74.999969"/>
      </g>
     </g>
    </g>
    <g id="xtick_3">
     <g id="line2d_5">
      <path d="M 120.15316 131.74 
L 120.15316 0 
" clip-path="url(#pf91ce7b854)" style="fill: none; stroke: #b0b0b0; stroke-width: 0.8; stroke-linecap: square"/>
     </g>
     <g id="line2d_6">
      <g>
       <use xlink:href="#maec1ab88b3" x="120.15316" y="131.74" style="stroke: #000000; stroke-width: 0.8"/>
      </g>
     </g>
     <g id="text_3">
      <!-- 0.4 -->
      <g transform="translate(113.90316 145.569687) scale(0.1 -0.1)">
       <defs>
        <path id="STIXGeneral-Regular-34" d="M 3027 1069 
L 2368 1069 
L 2368 0 
L 1869 0 
L 1869 1069 
L 77 1069 
L 77 1478 
L 2086 4326 
L 2368 4326 
L 2368 1478 
L 3027 1478 
L 3027 1069 
z
M 1869 1478 
L 1869 3674 
L 333 1478 
L 1869 1478 
z
" transform="scale(0.015625)"/>
       </defs>
       <use xlink:href="#STIXGeneral-Regular-30"/>
       <use xlink:href="#STIXGeneral-Regular-2e" x="49.999985"/>
       <use xlink:href="#STIXGeneral-Regular-34" x="74.999969"/>
      </g>
     </g>
    </g>
    <g id="xtick_4">
     <g id="line2d_7">
      <path d="M 157.924107 131.74 
L 157.924107 0 
" clip-path="url(#pf91ce7b854)" style="fill: none; stroke: #b0b0b0; stroke-width: 0.8; stroke-linecap: square"/>
     </g>
     <g id="line2d_8">
      <g>
       <use xlink:href="#maec1ab88b3" x="157.924107" y="131.74" style="stroke: #000000; stroke-width: 0.8"/>
      </g>
     </g>
     <g id="text_4">
      <!-- 0.6 -->
      <g transform="translate(151.674107 145.569687) scale(0.1 -0.1)">
       <defs>
        <path id="STIXGeneral-Regular-36" d="M 2854 4378 
L 2867 4275 
Q 2112 4154 1606 3664 
Q 1101 3174 973 2451 
Q 1344 2739 1786 2739 
Q 2349 2739 2672 2380 
Q 2995 2022 2995 1402 
Q 2995 774 2669 378 
Q 2291 -90 1651 -90 
Q 870 -90 518 557 
Q 218 1107 218 1786 
Q 218 2835 915 3552 
Q 1312 3962 1731 4131 
Q 2150 4301 2854 4378 
z
M 2419 1203 
Q 2419 2445 1555 2445 
Q 1235 2445 1024 2275 
Q 813 2106 813 1702 
Q 813 954 1046 522 
Q 1280 90 1722 90 
Q 2061 90 2240 394 
Q 2419 698 2419 1203 
z
" transform="scale(0.015625)"/>
       </defs>
       <use xlink:href="#STIXGeneral-Regular-30"/>
       <use xlink:href="#STIXGeneral-Regular-2e" x="49.999985"/>
       <use xlink:href="#STIXGeneral-Regular-36" x="74.999969"/>
      </g>
     </g>
    </g>
    <g id="xtick_5">
     <g id="line2d_9">
      <path d="M 195.695053 131.74 
L 195.695053 0 
" clip-path="url(#pf91ce7b854)" style="fill: none; stroke: #b0b0b0; stroke-width: 0.8; stroke-linecap: square"/>
     </g>
     <g id="line2d_10">
      <g>
       <use xlink:href="#maec1ab88b3" x="195.695053" y="131.74" style="stroke: #000000; stroke-width: 0.8"/>
      </g>
     </g>
     <g id="text_5">
      <!-- 0.8 -->
      <g transform="translate(189.445053 145.569687) scale(0.1 -0.1)">
       <defs>
        <path id="STIXGeneral-Regular-38" d="M 2848 992 
Q 2848 499 2505 204 
Q 2163 -90 1587 -90 
Q 1050 -90 704 204 
Q 358 499 358 954 
Q 358 1293 524 1533 
Q 691 1773 1190 2125 
Q 710 2522 553 2765 
Q 397 3008 397 3328 
Q 397 3782 745 4054 
Q 1094 4326 1638 4326 
Q 2106 4326 2410 4060 
Q 2714 3795 2714 3411 
Q 2714 3059 2531 2848 
Q 2349 2637 1856 2374 
Q 2432 1990 2640 1689 
Q 2848 1389 2848 992 
z
M 2272 3411 
Q 2272 3744 2086 3945 
Q 1901 4147 1574 4147 
Q 1248 4147 1059 3977 
Q 870 3808 870 3513 
Q 870 3219 1059 2979 
Q 1248 2739 1670 2490 
Q 1997 2682 2134 2896 
Q 2272 3110 2272 3411 
z
M 1734 1741 
L 1357 1997 
Q 1075 1766 960 1545 
Q 845 1325 845 1011 
Q 845 576 1065 333 
Q 1286 90 1658 90 
Q 1971 90 2166 285 
Q 2362 480 2362 794 
Q 2362 1082 2214 1299 
Q 2067 1517 1734 1741 
z
" transform="scale(0.015625)"/>
       </defs>
       <use xlink:href="#STIXGeneral-Regular-30"/>
       <use xlink:href="#STIXGeneral-Regular-2e" x="49.999985"/>
       <use xlink:href="#STIXGeneral-Regular-38" x="74.999969"/>
      </g>
     </g>
    </g>
    <g id="xtick_6">
     <g id="line2d_11">
      <path d="M 233.466 131.74 
L 233.466 0 
" clip-path="url(#pf91ce7b854)" style="fill: none; stroke: #b0b0b0; stroke-width: 0.8; stroke-linecap: square"/>
     </g>
     <g id="line2d_12">
      <g>
       <use xlink:href="#maec1ab88b3" x="233.466" y="131.74" style="stroke: #000000; stroke-width: 0.8"/>
      </g>
     </g>
     <g id="text_6">
      <!-- 1.0 -->
      <g transform="translate(227.216 145.569687) scale(0.1 -0.1)">
       <defs>
        <path id="STIXGeneral-Regular-31" d="M 2522 0 
L 755 0 
L 755 96 
Q 1107 115 1235 227 
Q 1363 339 1363 608 
L 1363 3482 
Q 1363 3795 1171 3795 
Q 1082 3795 883 3718 
L 710 3654 
L 710 3744 
L 1856 4326 
L 1914 4307 
L 1914 486 
Q 1914 275 2042 185 
Q 2170 96 2522 96 
L 2522 0 
z
" transform="scale(0.015625)"/>
       </defs>
       <use xlink:href="#STIXGeneral-Regular-31"/>
       <use xlink:href="#STIXGeneral-Regular-2e" x="49.999985"/>
       <use xlink:href="#STIXGeneral-Regular-30" x="74.999969"/>
      </g>
     </g>
    </g>
    <g id="text_7">
     <!-- $x$ -->
     <g transform="translate(136.788633 158.569687) scale(0.1 -0.1)">
      <defs>
       <path id="STIXGeneral-Italic-78" d="M 1555 2272 
L 1632 1907 
Q 1971 2426 2179 2624 
Q 2387 2822 2598 2822 
Q 2714 2822 2787 2755 
Q 2861 2688 2861 2585 
Q 2861 2483 2800 2419 
Q 2739 2355 2643 2355 
Q 2586 2355 2490 2409 
Q 2394 2464 2310 2464 
Q 2125 2464 1683 1690 
Q 1683 1606 1734 1402 
L 1939 544 
Q 2003 282 2131 282 
Q 2234 282 2432 538 
Q 2451 563 2476 598 
Q 2502 634 2521 662 
Q 2541 691 2566 717 
L 2662 659 
Q 2387 230 2227 80 
Q 2067 -70 1882 -70 
Q 1728 -70 1645 26 
Q 1562 122 1504 365 
L 1318 1126 
L 755 365 
Q 557 96 432 13 
Q 307 -70 147 -70 
Q 0 -70 -86 0 
Q -173 70 -173 198 
Q -173 294 -112 361 
Q -51 429 45 429 
Q 122 429 250 358 
Q 346 301 416 301 
Q 525 301 742 614 
L 1267 1357 
L 1088 2150 
Q 1024 2432 969 2509 
Q 915 2586 794 2586 
Q 717 2586 544 2541 
L 429 2509 
L 410 2611 
L 480 2637 
Q 992 2822 1229 2822 
Q 1350 2822 1420 2707 
Q 1491 2592 1555 2272 
z
" transform="scale(0.015625)"/>
      </defs>
      <use xlink:href="#STIXGeneral-Italic-78" transform="translate(0 0.90625)"/>
     </g>
    </g>
   </g>
   <g id="matplotlib.axis_2">
    <g id="ytick_1">
     <g id="line2d_13">
      <path d="M 44.611267 107.812964 
L 233.466 107.812964 
" clip-path="url(#pf91ce7b854)" style="fill: none; stroke: #b0b0b0; stroke-width: 0.8; stroke-linecap: square"/>
     </g>
     <g id="line2d_14">
      <defs>
       <path id="m6cbc1bbb05" d="M 0 0 
L -3.5 0 
" style="stroke: #000000; stroke-width: 0.8"/>
      </defs>
      <g>
       <use xlink:href="#m6cbc1bbb05" x="44.611267" y="107.812964" style="stroke: #000000; stroke-width: 0.8"/>
      </g>
     </g>
     <g id="text_8">
      <!-- −1.0 -->
      <g transform="translate(18.261267 111.227807) scale(0.1 -0.1)">
       <defs>
        <path id="STIXGeneral-Regular-2212" d="M 3974 1408 
L 410 1408 
L 410 1830 
L 3974 1830 
L 3974 1408 
z
" transform="scale(0.015625)"/>
       </defs>
       <use xlink:href="#STIXGeneral-Regular-2212"/>
       <use xlink:href="#STIXGeneral-Regular-31" x="68.499985"/>
       <use xlink:href="#STIXGeneral-Regular-2e" x="118.499969"/>
       <use xlink:href="#STIXGeneral-Regular-30" x="143.499954"/>
      </g>
     </g>
    </g>
    <g id="ytick_2">
     <g id="line2d_15">
      <path d="M 44.611267 82.331627 
L 233.466 82.331627 
" clip-path="url(#pf91ce7b854)" style="fill: none; stroke: #b0b0b0; stroke-width: 0.8; stroke-linecap: square"/>
     </g>
     <g id="line2d_16">
      <g>
       <use xlink:href="#m6cbc1bbb05" x="44.611267" y="82.331627" style="stroke: #000000; stroke-width: 0.8"/>
      </g>
     </g>
     <g id="text_9">
      <!-- −0.5 -->
      <g transform="translate(18.261267 85.746471) scale(0.1 -0.1)">
       <defs>
        <path id="STIXGeneral-Regular-35" d="M 2803 4358 
L 2573 3814 
Q 2534 3731 2400 3731 
L 1158 3731 
L 902 3187 
Q 1606 3053 1920 2896 
Q 2234 2739 2502 2368 
Q 2726 2061 2726 1555 
Q 2726 1094 2576 780 
Q 2426 467 2099 224 
Q 1664 -90 1011 -90 
Q 646 -90 422 19 
Q 198 128 198 307 
Q 198 550 486 550 
Q 717 550 960 352 
Q 1210 147 1414 147 
Q 1747 147 2012 480 
Q 2278 813 2278 1229 
Q 2278 1843 1850 2189 
Q 1293 2637 486 2637 
Q 410 2637 410 2688 
L 416 2720 
L 1114 4237 
L 2438 4237 
Q 2547 4237 2608 4269 
Q 2669 4301 2746 4403 
L 2803 4358 
z
" transform="scale(0.015625)"/>
       </defs>
       <use xlink:href="#STIXGeneral-Regular-2212"/>
       <use xlink:href="#STIXGeneral-Regular-30" x="68.499985"/>
       <use xlink:href="#STIXGeneral-Regular-2e" x="118.499969"/>
       <use xlink:href="#STIXGeneral-Regular-35" x="143.499954"/>
      </g>
     </g>
    </g>
    <g id="ytick_3">
     <g id="line2d_17">
      <path d="M 44.611267 56.850291 
L 233.466 56.850291 
" clip-path="url(#pf91ce7b854)" style="fill: none; stroke: #b0b0b0; stroke-width: 0.8; stroke-linecap: square"/>
     </g>
     <g id="line2d_18">
      <g>
       <use xlink:href="#m6cbc1bbb05" x="44.611267" y="56.850291" style="stroke: #000000; stroke-width: 0.8"/>
      </g>
     </g>
     <g id="text_10">
      <!-- 0.0 -->
      <g transform="translate(25.111267 60.265135) scale(0.1 -0.1)">
       <use xlink:href="#STIXGeneral-Regular-30"/>
       <use xlink:href="#STIXGeneral-Regular-2e" x="49.999985"/>
       <use xlink:href="#STIXGeneral-Regular-30" x="74.999969"/>
      </g>
     </g>
    </g>
    <g id="ytick_4">
     <g id="line2d_19">
      <path d="M 44.611267 31.368955 
L 233.466 31.368955 
" clip-path="url(#pf91ce7b854)" style="fill: none; stroke: #b0b0b0; stroke-width: 0.8; stroke-linecap: square"/>
     </g>
     <g id="line2d_20">
      <g>
       <use xlink:href="#m6cbc1bbb05" x="44.611267" y="31.368955" style="stroke: #000000; stroke-width: 0.8"/>
      </g>
     </g>
     <g id="text_11">
      <!-- 0.5 -->
      <g transform="translate(25.111267 34.783799) scale(0.1 -0.1)">
       <use xlink:href="#STIXGeneral-Regular-30"/>
       <use xlink:href="#STIXGeneral-Regular-2e" x="49.999985"/>
       <use xlink:href="#STIXGeneral-Regular-35" x="74.999969"/>
      </g>
     </g>
    </g>
    <g id="ytick_5">
     <g id="line2d_21">
      <path d="M 44.611267 5.887619 
L 233.466 5.887619 
" clip-path="url(#pf91ce7b854)" style="fill: none; stroke: #b0b0b0; stroke-width: 0.8; stroke-linecap: square"/>
     </g>
     <g id="line2d_22">
      <g>
       <use xlink:href="#m6cbc1bbb05" x="44.611267" y="5.887619" style="stroke: #000000; stroke-width: 0.8"/>
      </g>
     </g>
     <g id="text_12">
      <!-- 1.0 -->
      <g transform="translate(25.111267 9.302462) scale(0.1 -0.1)">
       <use xlink:href="#STIXGeneral-Regular-31"/>
       <use xlink:href="#STIXGeneral-Regular-2e" x="49.999985"/>
       <use xlink:href="#STIXGeneral-Regular-30" x="74.999969"/>
      </g>
     </g>
    </g>
    <g id="text_13">
     <!-- $y$ -->
     <g transform="translate(12.090954 68.12) rotate(-90) scale(0.1 -0.1)">
      <defs>
       <path id="STIXGeneral-Italic-79" d="M 1555 1190 
L 1690 486 
Q 2118 1190 2294 1558 
Q 2470 1926 2470 2131 
Q 2470 2234 2304 2336 
Q 2138 2445 2138 2586 
Q 2138 2688 2211 2755 
Q 2285 2822 2394 2822 
Q 2534 2822 2630 2720 
Q 2726 2618 2726 2470 
Q 2726 1914 1888 518 
Q 1389 -307 918 -812 
Q 448 -1318 173 -1318 
Q 26 -1318 -64 -1241 
Q -154 -1165 -154 -1043 
Q -154 -934 -80 -860 
Q -6 -787 96 -787 
Q 218 -787 314 -876 
Q 410 -966 486 -966 
Q 602 -966 794 -755 
Q 877 -672 1040 -457 
Q 1203 -243 1248 -173 
Q 1312 -45 1312 51 
Q 1312 243 1113 1046 
Q 915 1850 787 2176 
Q 698 2413 592 2499 
Q 486 2586 294 2586 
Q 192 2586 96 2560 
L 96 2669 
Q 237 2694 301 2707 
Q 563 2758 986 2822 
L 1011 2822 
Q 1082 2822 1277 2227 
Q 1472 1632 1555 1190 
z
" transform="scale(0.015625)"/>
      </defs>
      <use xlink:href="#STIXGeneral-Italic-79" transform="translate(0 0.90625)"/>
     </g>
    </g>
   </g>
   <g id="line2d_23">
    <defs>
     <path id="m88c0468143" d="M 0 3 
C 0.795609 3 1.55874 2.683901 2.12132 2.12132 
C 2.683901 1.55874 3 0.795609 3 0 
C 3 -0.795609 2.683901 -1.55874 2.12132 -2.12132 
C 1.55874 -2.683901 0.795609 -3 0 -3 
C -0.795609 -3 -1.55874 -2.683901 -2.12132 -2.12132 
C -2.683901 -1.55874 -3 -0.795609 -3 0 
C -3 0.795609 -2.683901 1.55874 -2.12132 2.12132 
C -1.55874 2.683901 -0.795609 3 0 3 
z
" style="stroke: #0000ff"/>
    </defs>
    <g clip-path="url(#pf91ce7b854)">
     <use xlink:href="#m88c0468143" x="44.611267" y="56.850291" style="fill-opacity: 0; stroke: #0000ff"/>
     <use xlink:href="#m88c0468143" x="48.388361" y="32.298835" style="fill-opacity: 0; stroke: #0000ff"/>
     <use xlink:href="#m88c0468143" x="52.165456" y="13.821084" style="fill-opacity: 0; stroke: #0000ff"/>
     <use xlink:href="#m88c0468143" x="55.94255" y="5.988182" style="fill-opacity: 0; stroke: #0000ff"/>
     <use xlink:href="#m88c0468143" x="59.719645" y="10.737889" style="fill-opacity: 0; stroke: #0000ff"/>
     <use xlink:href="#m88c0468143" x="63.496739" y="26.895178" style="fill-opacity: 0; stroke: #0000ff"/>
     <use xlink:href="#m88c0468143" x="67.273834" y="50.462976" style="fill-opacity: 0; stroke: #0000ff"/>
     <use xlink:href="#m88c0468143" x="71.050929" y="75.610902" style="fill-opacity: 0; stroke: #0000ff"/>
     <use xlink:href="#m88c0468143" x="74.828023" y="96.117711" style="fill-opacity: 0; stroke: #0000ff"/>
     <use xlink:href="#m88c0468143" x="78.605117" y="106.910273" style="fill-opacity: 0; stroke: #0000ff"/>
     <use xlink:href="#m88c0468143" x="82.382211" y="105.318677" style="fill-opacity: 0; stroke: #0000ff"/>
     <use xlink:href="#m88c0468143" x="86.159308" y="91.736627" style="fill-opacity: 0; stroke: #0000ff"/>
     <use xlink:href="#m88c0468143" x="89.936402" y="69.524189" style="fill-opacity: 0; stroke: #0000ff"/>
     <use xlink:href="#m88c0468143" x="93.713496" y="44.1764" style="fill-opacity: 0; stroke: #0000ff"/>
     <use xlink:href="#m88c0468143" x="97.490592" y="21.96394" style="fill-opacity: 0; stroke: #0000ff"/>
     <use xlink:href="#m88c0468143" x="101.267683" y="8.381914" style="fill-opacity: 0; stroke: #0000ff"/>
     <use xlink:href="#m88c0468143" x="105.04478" y="6.790312" style="fill-opacity: 0; stroke: #0000ff"/>
     <use xlink:href="#m88c0468143" x="108.821877" y="17.582899" style="fill-opacity: 0; stroke: #0000ff"/>
     <use xlink:href="#m88c0468143" x="112.598968" y="38.089674" style="fill-opacity: 0; stroke: #0000ff"/>
     <use xlink:href="#m88c0468143" x="116.376064" y="63.237612" style="fill-opacity: 0; stroke: #0000ff"/>
     <use xlink:href="#m88c0468143" x="120.153155" y="86.805371" style="fill-opacity: 0; stroke: #0000ff"/>
     <use xlink:href="#m88c0468143" x="123.930252" y="102.962687" style="fill-opacity: 0; stroke: #0000ff"/>
     <use xlink:href="#m88c0468143" x="127.707349" y="107.712397" style="fill-opacity: 0; stroke: #0000ff"/>
     <use xlink:href="#m88c0468143" x="131.48444" y="99.879499" style="fill-opacity: 0; stroke: #0000ff"/>
     <use xlink:href="#m88c0468143" x="135.261537" y="81.40174" style="fill-opacity: 0; stroke: #0000ff"/>
     <use xlink:href="#m88c0468143" x="139.038633" y="56.850273" style="fill-opacity: 0; stroke: #0000ff"/>
     <use xlink:href="#m88c0468143" x="142.815724" y="32.298854" style="fill-opacity: 0; stroke: #0000ff"/>
     <use xlink:href="#m88c0468143" x="146.592827" y="13.821062" style="fill-opacity: 0; stroke: #0000ff"/>
     <use xlink:href="#m88c0468143" x="150.369918" y="5.988182" style="fill-opacity: 0; stroke: #0000ff"/>
     <use xlink:href="#m88c0468143" x="154.147009" y="10.737892" style="fill-opacity: 0; stroke: #0000ff"/>
     <use xlink:href="#m88c0468143" x="157.924111" y="26.895239" style="fill-opacity: 0; stroke: #0000ff"/>
     <use xlink:href="#m88c0468143" x="161.701202" y="50.463006" style="fill-opacity: 0; stroke: #0000ff"/>
     <use xlink:href="#m88c0468143" x="165.478293" y="75.610941" style="fill-opacity: 0; stroke: #0000ff"/>
     <use xlink:href="#m88c0468143" x="169.255396" y="96.117738" style="fill-opacity: 0; stroke: #0000ff"/>
     <use xlink:href="#m88c0468143" x="173.032487" y="106.910286" style="fill-opacity: 0; stroke: #0000ff"/>
     <use xlink:href="#m88c0468143" x="176.809578" y="105.31868" style="fill-opacity: 0; stroke: #0000ff"/>
     <use xlink:href="#m88c0468143" x="180.58668" y="91.736578" style="fill-opacity: 0; stroke: #0000ff"/>
     <use xlink:href="#m88c0468143" x="184.363771" y="69.524195" style="fill-opacity: 0; stroke: #0000ff"/>
     <use xlink:href="#m88c0468143" x="188.140862" y="44.176382" style="fill-opacity: 0; stroke: #0000ff"/>
     <use xlink:href="#m88c0468143" x="191.917965" y="21.963858" style="fill-opacity: 0; stroke: #0000ff"/>
     <use xlink:href="#m88c0468143" x="195.695056" y="8.381899" style="fill-opacity: 0; stroke: #0000ff"/>
     <use xlink:href="#m88c0468143" x="199.472147" y="6.790315" style="fill-opacity: 0; stroke: #0000ff"/>
     <use xlink:href="#m88c0468143" x="203.249249" y="17.582908" style="fill-opacity: 0; stroke: #0000ff"/>
     <use xlink:href="#m88c0468143" x="207.02634" y="38.089735" style="fill-opacity: 0; stroke: #0000ff"/>
     <use xlink:href="#m88c0468143" x="210.803431" y="63.237678" style="fill-opacity: 0; stroke: #0000ff"/>
     <use xlink:href="#m88c0468143" x="214.580522" y="86.805386" style="fill-opacity: 0; stroke: #0000ff"/>
     <use xlink:href="#m88c0468143" x="218.357624" y="102.962736" style="fill-opacity: 0; stroke: #0000ff"/>
     <use xlink:href="#m88c0468143" x="222.134716" y="107.7124" style="fill-opacity: 0; stroke: #0000ff"/>
     <use xlink:href="#m88c0468143" x="225.911807" y="99.87949" style="fill-opacity: 0; stroke: #0000ff"/>
     <use xlink:href="#m88c0468143" x="229.688909" y="81.401723" style="fill-opacity: 0; stroke: #0000ff"/>
     <use xlink:href="#m88c0468143" x="233.466" y="56.850255" style="fill-opacity: 0; stroke: #0000ff"/>
    </g>
   </g>
   <g id="line2d_24">
    <defs>
     <path id="md7ea1efede" d="M -3 3 
L 3 -3 
M -3 -3 
L 3 3 
" style="stroke: #ff0000"/>
    </defs>
    <g clip-path="url(#pf91ce7b854)">
     <use xlink:href="#md7ea1efede" x="44.611267" y="56.850291" style="fill: #ff0000; stroke: #ff0000"/>
     <use xlink:href="#md7ea1efede" x="58.100891" y="121.893753" style="fill: #ff0000; stroke: #ff0000"/>
     <use xlink:href="#md7ea1efede" x="71.590515" y="69.047677" style="fill: #ff0000; stroke: #ff0000"/>
     <use xlink:href="#md7ea1efede" x="85.080141" y="94.229759" style="fill: #ff0000; stroke: #ff0000"/>
     <use xlink:href="#md7ea1efede" x="98.569764" y="92.004727" style="fill: #ff0000; stroke: #ff0000"/>
     <use xlink:href="#md7ea1efede" x="112.059387" y="66.991776" style="fill: #ff0000; stroke: #ff0000"/>
     <use xlink:href="#md7ea1efede" x="125.549016" y="104.594064" style="fill: #ff0000; stroke: #ff0000"/>
     <use xlink:href="#md7ea1efede" x="139.038628" y="56.850291" style="fill: #ff0000; stroke: #ff0000"/>
     <use xlink:href="#md7ea1efede" x="152.528251" y="97.674159" style="fill: #ff0000; stroke: #ff0000"/>
     <use xlink:href="#md7ea1efede" x="166.017879" y="64.250697" style="fill: #ff0000; stroke: #ff0000"/>
     <use xlink:href="#md7ea1efede" x="179.507508" y="78.654013" style="fill: #ff0000; stroke: #ff0000"/>
     <use xlink:href="#md7ea1efede" x="192.997125" y="76.428979" style="fill: #ff0000; stroke: #ff0000"/>
     <use xlink:href="#md7ea1efede" x="206.486754" y="62.194792" style="fill: #ff0000; stroke: #ff0000"/>
     <use xlink:href="#md7ea1efede" x="219.976371" y="80.37442" style="fill: #ff0000; stroke: #ff0000"/>
    </g>
   </g>
   <g id="line2d_25">
    <path d="M 44.611267 57.074386 
L 44.988976 57.766456 
L 45.366686 58.800011 
L 46.122105 61.823747 
L 46.877523 65.991693 
L 48.010652 73.966823 
L 49.899199 89.825325 
L 51.787747 105.311244 
L 52.920876 112.969638 
L 53.676294 117.081824 
L 54.431713 120.291267 
L 55.187132 122.537362 
L 55.564842 123.285781 
L 55.942551 123.779084 
L 56.320261 124.014383 
L 56.69797 123.989341 
L 57.075679 123.702232 
L 57.453389 123.152029 
L 58.208808 121.262009 
L 58.964227 118.329128 
L 59.719646 114.385682 
L 60.852774 106.731814 
L 61.985904 97.392676 
L 65.385289 67.867462 
L 66.140708 63.026824 
L 66.896127 59.392447 
L 67.651546 57.117882 
L 68.029255 56.521476 
L 68.406963 56.295665 
L 68.784674 56.444484 
L 69.162384 56.969288 
L 69.540091 57.868388 
L 70.295512 60.763607 
L 71.050929 65.022973 
L 72.18406 73.443585 
L 75.205734 97.849274 
L 76.338864 104.301952 
L 77.094282 107.456087 
L 77.849702 109.753384 
L 78.60512 111.272117 
L 79.36054 112.080541 
L 79.738248 112.232883 
L 80.115958 112.220757 
L 80.493668 112.044254 
L 80.871376 111.700985 
L 81.626796 110.495023 
L 82.382214 108.546832 
L 83.137634 105.784841 
L 83.893052 102.144865 
L 84.648472 97.606138 
L 85.7816 89.295821 
L 88.803277 65.631736 
L 89.558694 61.468385 
L 90.314115 58.501709 
L 91.069532 56.786602 
L 91.447243 56.398553 
L 91.82495 56.319455 
L 92.20266 56.544533 
L 92.58037 57.067906 
L 92.958081 57.882269 
L 93.713501 60.346101 
L 94.468916 63.836873 
L 95.602047 70.674386 
L 97.112888 81.679399 
L 99.379143 98.136152 
L 100.512268 104.662711 
L 101.267689 108.010736 
L 102.023109 110.443712 
L 102.77853 111.901899 
L 103.156234 112.254438 
L 103.533945 112.352796 
L 103.911655 112.196505 
L 104.289365 111.786063 
L 104.667075 111.123785 
L 105.422496 109.058287 
L 106.177911 106.048166 
L 106.933331 102.173342 
L 108.066462 95.0111 
L 109.955007 81.052035 
L 111.465843 70.269152 
L 112.598973 63.70198 
L 113.354394 60.397513 
L 114.109814 58.08274 
L 114.487519 57.314958 
L 114.865229 56.811306 
L 115.242939 56.572514 
L 115.62065 56.597864 
L 115.99836 56.885641 
L 116.37607 57.433381 
L 117.131485 59.295551 
L 117.886905 62.147324 
L 118.642326 65.918336 
L 119.775457 72.981774 
L 122.797133 93.494967 
L 123.930258 99.158819 
L 124.685678 101.945537 
L 125.441099 103.9364 
L 126.196514 105.158935 
L 126.574224 105.491839 
L 126.951934 105.642748 
L 127.329644 105.613307 
L 127.707355 105.403536 
L 128.085065 105.012231 
L 128.84048 103.676234 
L 129.5959 101.580306 
L 130.351321 98.704392 
L 131.106741 95.056488 
L 132.239866 88.306598 
L 135.639253 66.125583 
L 136.394673 62.561281 
L 137.150088 59.844651 
L 137.905508 58.001253 
L 138.283218 57.406499 
L 138.660929 57.028247 
L 139.038628 56.865297 
L 139.416338 56.916587 
L 139.794043 57.180867 
L 140.171758 57.656441 
L 140.927179 59.229996 
L 141.682599 61.598662 
L 142.43802 64.691417 
L 143.571145 70.434935 
L 147.725952 93.502294 
L 148.481361 96.38075 
L 149.236781 98.492063 
L 149.992202 99.760765 
L 150.369918 100.06458 
L 150.747622 100.143959 
L 151.125327 99.998613 
L 151.503043 99.629874 
L 151.880747 99.04079 
L 152.636168 97.225148 
L 153.391588 94.618142 
L 154.524713 89.453342 
L 156.035554 81.023307 
L 158.301816 68.218566 
L 159.434941 63.131722 
L 160.190361 60.538866 
L 160.945782 58.66036 
L 161.701202 57.514949 
L 162.078907 57.214683 
L 162.456611 57.092381 
L 162.834327 57.144652 
L 163.212032 57.368187 
L 163.589748 57.759944 
L 164.345168 59.038745 
L 165.100589 60.965668 
L 165.855998 63.52127 
L 166.989134 68.421673 
L 168.499964 76.285255 
L 170.388521 85.917255 
L 171.521646 90.378893 
L 172.277066 92.552129 
L 173.032487 94.030121 
L 173.787896 94.799208 
L 174.165612 94.917396 
L 174.543316 94.858369 
L 174.921032 94.622522 
L 175.298737 94.21016 
L 176.054157 92.85911 
L 176.809578 90.818922 
L 177.564998 88.125368 
L 178.698123 83.038607 
L 182.475214 64.296529 
L 183.230635 61.666455 
L 183.986055 59.642859 
L 184.741476 58.222772 
L 185.496896 57.386837 
L 185.874601 57.182074 
L 186.252317 57.117473 
L 186.630021 57.192276 
L 187.007737 57.40623 
L 187.763158 58.251198 
L 188.518567 59.647889 
L 189.273987 61.578108 
L 190.407124 65.373827 
L 191.917953 71.655032 
L 194.561919 82.94641 
L 195.695056 86.586538 
L 196.450476 88.301063 
L 197.205885 89.352402 
L 197.583601 89.613822 
L 197.961306 89.694732 
L 198.339022 89.59423 
L 198.716726 89.31373 
L 199.472147 88.226812 
L 200.227567 86.483071 
L 200.982988 84.162694 
L 202.116113 79.846926 
L 205.893204 64.136002 
L 207.02634 60.74901 
L 207.78176 59.067525 
L 208.53717 57.856913 
L 209.29259 57.103102 
L 210.048011 56.786219 
L 210.803431 56.89228 
L 211.558852 57.42012 
L 212.314272 58.380677 
L 213.069692 59.78751 
L 213.825102 61.639706 
L 214.958238 65.163895 
L 218.735329 78.065642 
L 219.49075 79.682842 
L 220.24617 80.728965 
L 220.623875 81.025375 
L 221.00159 81.16759 
L 221.379295 81.155251 
L 221.757011 80.989167 
L 222.134716 80.671597 
L 222.890136 79.597199 
L 223.645556 77.978073 
L 224.778682 74.695703 
L 226.289522 69.346529 
L 228.178068 62.7868 
L 229.311193 59.710908 
L 230.066614 58.166002 
L 230.822034 57.039273 
L 231.577454 56.313102 
L 232.332875 55.958284 
L 233.088295 55.944973 
L 233.466 56.058846 
L 233.466 56.058846 
" clip-path="url(#pf91ce7b854)" style="fill: none; stroke: #008000; stroke-width: 1.5; stroke-linecap: square"/>
   </g>
   <g id="line2d_26">
    <path d="M 44.611267 56.850291 
L 44.988976 57.031979 
L 45.366686 57.574182 
L 45.744395 58.469894 
L 46.499814 61.276192 
L 47.255233 65.326181 
L 48.388362 73.340707 
L 49.899199 86.428102 
L 52.543166 109.803942 
L 53.676294 117.631656 
L 54.431713 121.548978 
L 55.187132 124.237611 
L 55.564842 125.086259 
L 55.942551 125.592526 
L 56.320261 125.751818 
L 56.69797 125.563031 
L 57.075679 125.028581 
L 57.453389 124.15435 
L 58.208808 121.427188 
L 58.964227 117.494902 
L 60.097355 109.700888 
L 61.608193 96.915765 
L 64.252159 73.786079 
L 65.385289 65.857497 
L 66.140708 61.787009 
L 66.896127 58.873861 
L 67.273836 57.88636 
L 67.651546 57.223955 
L 68.029255 56.891815 
L 68.406963 56.891752 
L 68.784674 57.222227 
L 69.162384 57.878366 
L 69.917802 60.131856 
L 70.673222 63.549663 
L 71.42864 67.983007 
L 72.561768 76.115408 
L 76.716572 108.763566 
L 77.471992 113.053798 
L 78.22741 116.327299 
L 78.98283 118.454915 
L 79.36054 119.061393 
L 79.738248 119.354425 
L 80.115958 119.33154 
L 80.493668 118.993496 
L 80.871376 118.344231 
L 81.626796 116.143232 
L 82.382214 112.82088 
L 83.137634 108.513953 
L 84.270762 100.600272 
L 86.537021 82.288659 
L 88.047856 70.856854 
L 89.180987 63.982335 
L 89.936404 60.551245 
L 90.691825 58.196155 
L 91.069532 57.449953 
L 91.447243 57.000328 
L 91.82495 56.850291 
L 92.20266 56.999818 
L 92.58037 57.445856 
L 92.958081 58.182377 
L 93.713501 60.488245 
L 94.468916 63.812856 
L 95.602047 70.383787 
L 97.112888 81.093858 
L 99.756854 100.156486 
L 100.889979 106.509436 
L 101.645399 109.675178 
L 102.40082 111.833948 
L 102.77853 112.507872 
L 103.156234 112.902094 
L 103.533945 113.013167 
L 103.911655 112.840461 
L 104.289365 112.386234 
L 104.667075 111.655573 
L 105.422496 109.399101 
L 106.177911 106.165521 
L 107.311041 99.783064 
L 108.821877 89.351725 
L 111.465843 70.554578 
L 112.598973 64.130915 
L 113.354394 60.837792 
L 114.109814 58.48356 
L 114.487519 57.686229 
L 114.865229 57.151661 
L 115.242939 56.883768 
L 115.62065 56.883706 
L 115.99836 57.149941 
L 116.37607 57.678237 
L 117.131485 59.491042 
L 117.886905 62.237308 
L 118.642326 65.795365 
L 119.775457 72.311785 
L 123.930258 98.332628 
L 124.685678 101.724423 
L 125.441099 104.299252 
L 126.196514 105.956144 
L 126.574224 106.419055 
L 126.951934 106.631852 
L 127.329644 106.592882 
L 127.707355 106.303061 
L 128.085065 105.765823 
L 128.84048 103.975229 
L 129.5959 101.296821 
L 130.351321 97.841483 
L 131.484446 91.517554 
L 136.016963 64.111627 
L 136.772383 61.01509 
L 137.527798 58.724763 
L 138.283218 57.321622 
L 138.660929 56.968164 
L 139.038628 56.850291 
L 139.416338 56.967653 
L 139.794043 57.317513 
L 140.171758 57.894836 
L 140.927179 59.700265 
L 141.682599 62.299541 
L 142.815724 67.426813 
L 144.326565 75.759534 
L 146.592815 88.611128 
L 147.725952 93.914094 
L 148.481361 96.687199 
L 149.236781 98.718642 
L 149.992202 99.929455 
L 150.369918 100.211659 
L 150.747622 100.274513 
L 151.125327 100.1179 
L 151.503043 99.743897 
L 151.880747 99.15682 
L 152.636168 97.371075 
L 153.391588 94.836124 
L 154.524713 89.865297 
L 156.035554 81.787775 
L 158.67952 67.323096 
L 159.812645 62.404397 
L 160.568066 59.888606 
L 161.323486 58.093297 
L 162.078907 57.079378 
L 162.456611 56.875725 
L 162.834327 56.875659 
L 163.212032 57.077639 
L 163.589748 57.478095 
L 164.345168 58.85021 
L 165.100589 60.924947 
L 165.855998 63.607656 
L 166.989134 68.508038 
L 171.14393 87.901648 
L 171.89935 90.394965 
L 172.654771 92.271183 
L 173.410191 93.457373 
L 173.787896 93.776711 
L 174.165612 93.909279 
L 174.543316 93.854234 
L 174.921032 93.612626 
L 175.298737 93.187442 
L 176.054157 91.807221 
L 176.809578 89.772811 
L 177.942703 85.686451 
L 179.453544 78.912397 
L 182.09751 66.495631 
L 183.230635 62.160135 
L 183.986055 59.890986 
L 184.741476 58.216622 
L 185.496896 57.193296 
L 185.874601 56.936005 
L 186.252317 56.850291 
L 186.630021 56.935491 
L 187.007737 57.189203 
L 187.763158 58.184127 
L 188.518567 59.783033 
L 189.273987 61.910339 
L 190.407124 65.877232 
L 192.673374 75.121703 
L 194.184215 80.86151 
L 195.31734 84.264958 
L 196.07276 85.927522 
L 196.828181 87.026615 
L 197.205885 87.351066 
L 197.583601 87.521226 
L 197.961306 87.535856 
L 198.339022 87.395324 
L 198.716726 87.101556 
L 199.472147 86.069713 
L 200.227567 84.485656 
L 200.982988 82.416362 
L 202.116113 78.594069 
L 204.382374 69.69506 
L 205.893204 64.091585 
L 207.02634 60.677801 
L 207.78176 58.939362 
L 208.53717 57.703004 
L 209.29259 57.007082 
L 209.670306 56.867676 
L 210.048011 56.867613 
L 210.425726 57.00535 
L 211.181136 57.681155 
L 211.936556 58.855843 
L 212.691977 60.470629 
L 213.825102 63.548713 
L 215.713658 69.637571 
L 217.602204 75.521098 
L 218.735329 78.316825 
L 219.49075 79.709758 
L 220.24617 80.66066 
L 221.00159 81.134385 
L 221.379295 81.186712 
L 221.757011 81.115571 
L 222.51242 80.609043 
L 223.267841 79.639202 
L 224.023261 78.248756 
L 225.156386 75.507248 
L 226.667227 71.035462 
L 229.311193 62.981685 
L 230.444329 60.208559 
L 231.199739 58.766816 
L 231.955159 57.708486 
L 232.71058 57.064964 
L 233.466 56.850291 
L 233.466 56.850291 
" clip-path="url(#pf91ce7b854)" style="fill: none; stroke-dasharray: 1.5,2.475; stroke-dashoffset: 0; stroke: #000000; stroke-width: 1.5"/>
   </g>
   <g id="patch_3">
    <path d="M 44.611267 131.74 
L 44.611267 -0 
" style="fill: none; stroke: #000000; stroke-width: 0.8; stroke-linejoin: miter; stroke-linecap: square"/>
   </g>
   <g id="patch_4">
    <path d="M 233.466 131.74 
L 233.466 -0 
" style="fill: none; stroke: #000000; stroke-width: 0.8; stroke-linejoin: miter; stroke-linecap: square"/>
   </g>
   <g id="patch_5">
    <path d="M 44.611267 131.74 
L 233.466 131.74 
" style="fill: none; stroke: #000000; stroke-width: 0.8; stroke-linejoin: miter; stroke-linecap: square"/>
   </g>
   <g id="patch_6">
    <path d="M 44.611267 0 
L 233.466 0 
" style="fill: none; stroke: #000000; stroke-width: 0.8; stroke-linejoin: miter; stroke-linecap: square"/>
   </g>
   <g id="legend_1">
    <g id="patch_7">
     <path d="M 51.611267 65.420312 
L 101.390954 65.420312 
Q 103.390954 65.420312 103.390954 63.420312 
L 103.390954 7 
Q 103.390954 5 101.390954 5 
L 51.611267 5 
Q 49.611267 5 49.611267 7 
L 49.611267 63.420312 
Q 49.611267 65.420312 51.611267 65.420312 
z
" style="fill: #ffffff; opacity: 0.8; stroke: #cccccc; stroke-linejoin: miter"/>
    </g>
    <g id="line2d_27">
     <g>
      <use xlink:href="#m88c0468143" x="63.611267" y="12.5" style="fill-opacity: 0; stroke: #0000ff"/>
     </g>
    </g>
    <g id="text_14">
     <!-- low -->
     <g transform="translate(81.611267 16) scale(0.1 -0.1)">
      <defs>
       <path id="STIXGeneral-Regular-6c" d="M 1645 0 
L 134 0 
L 134 96 
Q 435 122 531 221 
Q 627 320 627 589 
L 627 3590 
Q 627 3821 569 3910 
Q 512 4000 358 4000 
Q 224 4000 122 3987 
L 122 4090 
Q 730 4237 1133 4371 
L 1165 4346 
L 1165 557 
Q 1165 288 1254 201 
Q 1344 115 1645 96 
L 1645 0 
z
" transform="scale(0.015625)"/>
       <path id="STIXGeneral-Regular-6f" d="M 3008 1478 
Q 3008 806 2608 371 
Q 2208 -64 1568 -64 
Q 979 -64 582 368 
Q 186 800 186 1459 
Q 186 2125 582 2534 
Q 979 2944 1626 2944 
Q 2221 2944 2614 2537 
Q 3008 2131 3008 1478 
z
M 2432 1306 
Q 2432 2035 2112 2445 
Q 1856 2765 1504 2765 
Q 1171 2765 966 2493 
Q 762 2221 762 1747 
Q 762 928 1101 435 
Q 1318 115 1677 115 
Q 2029 115 2230 432 
Q 2432 749 2432 1306 
z
" transform="scale(0.015625)"/>
       <path id="STIXGeneral-Regular-77" d="M 4442 2880 
L 4442 2784 
Q 4346 2752 4301 2691 
Q 4256 2630 4179 2438 
L 3296 224 
Q 3168 -90 3117 -90 
Q 3085 -90 3062 -48 
Q 3040 -6 2963 186 
L 2381 1696 
L 1664 160 
Q 1549 -90 1504 -90 
Q 1446 -90 1338 192 
L 474 2381 
Q 378 2630 314 2700 
Q 250 2771 134 2784 
L 134 2880 
L 1286 2880 
L 1286 2784 
Q 1120 2765 1056 2720 
Q 992 2675 992 2573 
Q 992 2477 1030 2381 
L 1664 710 
L 2246 1984 
L 2118 2342 
Q 2029 2598 1942 2681 
Q 1856 2765 1677 2784 
L 1677 2880 
L 2976 2880 
L 2976 2784 
Q 2752 2752 2678 2707 
Q 2605 2662 2605 2560 
Q 2605 2458 2714 2176 
L 3251 742 
L 3827 2163 
Q 3936 2432 3936 2592 
Q 3936 2669 3875 2710 
Q 3814 2752 3654 2784 
L 3654 2880 
L 4442 2880 
z
" transform="scale(0.015625)"/>
      </defs>
      <use xlink:href="#STIXGeneral-Regular-6c"/>
      <use xlink:href="#STIXGeneral-Regular-6f" x="27.799988"/>
      <use xlink:href="#STIXGeneral-Regular-77" x="77.799973"/>
     </g>
    </g>
    <g id="line2d_28">
     <g>
      <use xlink:href="#md7ea1efede" x="63.611267" y="26.670312" style="fill: #ff0000; stroke: #ff0000"/>
     </g>
    </g>
    <g id="text_15">
     <!-- high -->
     <g transform="translate(81.611267 30.170312) scale(0.1 -0.1)">
      <defs>
       <path id="STIXGeneral-Regular-68" d="M 3117 0 
L 1760 0 
L 1760 96 
Q 2042 128 2118 224 
Q 2195 320 2195 653 
L 2195 1920 
Q 2195 2598 1722 2598 
Q 1530 2598 1370 2508 
Q 1210 2419 1005 2195 
L 1005 653 
Q 1005 320 1081 224 
Q 1158 128 1440 96 
L 1440 0 
L 58 0 
L 58 96 
Q 333 134 400 224 
Q 467 314 467 653 
L 467 3667 
Q 467 3872 406 3933 
Q 346 3994 141 3994 
Q 83 3994 64 3987 
L 64 4090 
L 237 4141 
Q 730 4288 973 4371 
L 1005 4352 
L 1005 2406 
Q 1229 2694 1446 2819 
Q 1664 2944 1946 2944 
Q 2733 2944 2733 1926 
L 2733 653 
Q 2733 320 2793 233 
Q 2854 147 3117 96 
L 3117 0 
z
" transform="scale(0.015625)"/>
       <path id="STIXGeneral-Regular-69" d="M 1152 4045 
Q 1152 3904 1056 3811 
Q 960 3718 819 3718 
Q 685 3718 592 3811 
Q 499 3904 499 4045 
Q 499 4179 595 4275 
Q 691 4371 826 4371 
Q 966 4371 1059 4275 
Q 1152 4179 1152 4045 
z
M 1619 0 
L 102 0 
L 102 96 
Q 435 115 521 211 
Q 608 307 608 666 
L 608 2118 
Q 608 2342 563 2432 
Q 518 2522 397 2522 
Q 243 2522 128 2490 
L 128 2592 
L 1120 2944 
L 1146 2918 
L 1146 672 
Q 1146 314 1226 218 
Q 1306 122 1619 96 
L 1619 0 
z
" transform="scale(0.015625)"/>
       <path id="STIXGeneral-Regular-67" d="M 3008 2483 
L 2477 2483 
Q 2598 2208 2598 1946 
Q 2598 1453 2265 1203 
Q 1933 954 1600 954 
Q 1530 954 1357 973 
L 1235 986 
Q 1107 947 979 812 
Q 851 678 851 582 
Q 851 435 1350 410 
L 2176 371 
Q 2528 358 2739 172 
Q 2950 -13 2950 -314 
Q 2950 -685 2566 -986 
Q 2035 -1395 1286 -1395 
Q 826 -1395 502 -1212 
Q 179 -1030 179 -774 
Q 179 -595 320 -419 
Q 461 -243 806 6 
Q 602 102 534 172 
Q 467 243 467 346 
Q 467 531 762 787 
Q 909 915 1037 1043 
Q 717 1203 579 1401 
Q 442 1600 442 1901 
Q 442 2336 752 2640 
Q 1062 2944 1510 2944 
Q 1766 2944 2022 2848 
L 2163 2797 
Q 2349 2733 2515 2733 
L 3008 2733 
L 3008 2483 
z
M 973 2163 
L 973 2144 
Q 973 1683 1155 1398 
Q 1338 1114 1632 1114 
Q 1850 1114 1978 1270 
Q 2106 1427 2106 1690 
Q 2106 2112 1914 2464 
Q 1754 2765 1446 2765 
Q 1222 2765 1097 2605 
Q 973 2445 973 2163 
z
M 2771 -410 
Q 2771 -230 2595 -163 
Q 2419 -96 1978 -96 
Q 1344 -96 941 -13 
Q 749 -243 688 -348 
Q 627 -454 627 -563 
Q 627 -774 880 -902 
Q 1133 -1030 1555 -1030 
Q 2099 -1030 2435 -860 
Q 2771 -691 2771 -410 
z
" transform="scale(0.015625)"/>
      </defs>
      <use xlink:href="#STIXGeneral-Regular-68"/>
      <use xlink:href="#STIXGeneral-Regular-69" x="49.999985"/>
      <use xlink:href="#STIXGeneral-Regular-67" x="77.799973"/>
      <use xlink:href="#STIXGeneral-Regular-68" x="127.799957"/>
     </g>
    </g>
    <g id="line2d_29">
     <path d="M 53.611267 40.85 
L 63.611267 40.85 
L 73.611267 40.85 
" style="fill: none; stroke: #008000; stroke-width: 1.5; stroke-linecap: square"/>
    </g>
    <g id="text_16">
     <!-- $y_{\mathrm{pred}}$ -->
     <g transform="translate(81.611267 44.35) scale(0.1 -0.1)">
      <defs>
       <path id="STIXGeneral-Regular-70" d="M 1018 2931 
L 1018 2438 
Q 1421 2944 1939 2944 
Q 2406 2944 2707 2560 
Q 3008 2176 3008 1581 
Q 3008 883 2621 409 
Q 2234 -64 1664 -64 
Q 1466 -64 1328 -6 
Q 1190 51 1018 211 
L 1018 -794 
Q 1018 -1094 1120 -1180 
Q 1222 -1267 1581 -1274 
L 1581 -1389 
L 32 -1389 
L 32 -1280 
Q 314 -1254 397 -1171 
Q 480 -1088 480 -838 
L 480 2157 
Q 480 2381 429 2451 
Q 378 2522 218 2522 
Q 115 2522 58 2515 
L 58 2618 
Q 506 2752 979 2944 
L 1018 2931 
z
M 1018 2138 
L 1018 563 
Q 1018 422 1238 281 
Q 1459 141 1683 141 
Q 2029 141 2243 467 
Q 2458 794 2458 1325 
Q 2458 1888 2243 2224 
Q 2029 2560 1670 2560 
Q 1446 2560 1232 2419 
Q 1018 2278 1018 2138 
z
" transform="scale(0.015625)"/>
       <path id="STIXGeneral-Regular-72" d="M 1024 2931 
L 1024 2342 
Q 1267 2688 1430 2816 
Q 1594 2944 1792 2944 
Q 1958 2944 2051 2854 
Q 2144 2765 2144 2605 
Q 2144 2470 2077 2393 
Q 2010 2317 1894 2317 
Q 1773 2317 1638 2445 
Q 1536 2541 1472 2541 
Q 1338 2541 1181 2355 
Q 1024 2170 1024 2016 
L 1024 576 
Q 1024 301 1133 205 
Q 1242 109 1568 96 
L 1568 0 
L 32 0 
L 32 96 
Q 339 154 412 224 
Q 486 294 486 538 
L 486 2138 
Q 486 2349 438 2435 
Q 390 2522 269 2522 
Q 166 2522 45 2496 
L 45 2598 
Q 448 2726 992 2944 
L 1024 2931 
z
" transform="scale(0.015625)"/>
       <path id="STIXGeneral-Regular-65" d="M 2611 1050 
L 2714 1005 
Q 2330 -64 1376 -64 
Q 813 -64 486 329 
Q 160 723 160 1389 
Q 160 2074 525 2509 
Q 890 2944 1485 2944 
Q 2061 2944 2374 2502 
Q 2560 2246 2592 1773 
L 621 1773 
Q 646 1370 700 1158 
Q 755 947 915 730 
Q 1184 378 1626 378 
Q 1939 378 2153 531 
Q 2368 685 2611 1050 
z
M 634 1978 
L 1939 1978 
Q 1882 2381 1750 2547 
Q 1619 2714 1312 2714 
Q 1043 2714 864 2525 
Q 685 2336 634 1978 
z
" transform="scale(0.015625)"/>
       <path id="STIXGeneral-Regular-64" d="M 3142 269 
L 2202 -64 
L 2176 -45 
L 2176 365 
Q 1869 -64 1357 -64 
Q 826 -64 499 317 
Q 173 698 173 1312 
Q 173 1990 563 2467 
Q 954 2944 1504 2944 
Q 1850 2944 2176 2669 
L 2176 3667 
Q 2176 3866 2118 3930 
Q 2061 3994 1882 3994 
Q 1792 3994 1741 3987 
L 1741 4090 
Q 2323 4243 2682 4371 
L 2714 4358 
L 2714 730 
Q 2714 506 2768 435 
Q 2822 365 2995 365 
Q 3034 365 3142 371 
L 3142 269 
z
M 2176 653 
L 2176 2125 
Q 2176 2381 1981 2573 
Q 1786 2765 1523 2765 
Q 1158 2765 940 2438 
Q 723 2112 723 1568 
Q 723 979 963 624 
Q 1203 269 1606 269 
Q 1907 269 2080 474 
Q 2176 582 2176 653 
z
" transform="scale(0.015625)"/>
      </defs>
      <use xlink:href="#STIXGeneral-Italic-79" transform="translate(0 0.90625)"/>
      <use xlink:href="#STIXGeneral-Regular-70" transform="translate(44.399994 -12.321875) scale(0.7)"/>
      <use xlink:href="#STIXGeneral-Regular-72" transform="translate(79.399983 -12.321875) scale(0.7)"/>
      <use xlink:href="#STIXGeneral-Regular-65" transform="translate(102.709975 -12.321875) scale(0.7)"/>
      <use xlink:href="#STIXGeneral-Regular-64" transform="translate(133.78997 -12.321875) scale(0.7)"/>
     </g>
    </g>
    <g id="line2d_30">
     <path d="M 53.611267 55.75 
L 63.611267 55.75 
L 73.611267 55.75 
" style="fill: none; stroke-dasharray: 1.5,2.475; stroke-dashoffset: 0; stroke: #000000; stroke-width: 1.5"/>
    </g>
    <g id="text_17">
     <!-- true -->
     <g transform="translate(81.611267 59.25) scale(0.1 -0.1)">
      <defs>
       <path id="STIXGeneral-Regular-74" d="M 1702 493 
L 1786 422 
Q 1478 -64 1011 -64 
Q 448 -64 448 749 
L 448 2675 
L 109 2675 
Q 83 2694 83 2720 
Q 83 2771 192 2842 
Q 435 2982 813 3526 
Q 826 3546 874 3606 
Q 922 3667 941 3706 
Q 986 3706 986 3622 
L 986 2880 
L 1632 2880 
L 1632 2675 
L 986 2675 
L 986 845 
Q 986 538 1062 403 
Q 1139 269 1318 269 
Q 1510 269 1702 493 
z
" transform="scale(0.015625)"/>
       <path id="STIXGeneral-Regular-75" d="M 3072 320 
L 3072 230 
Q 2573 96 2195 -58 
L 2163 -38 
L 2163 486 
L 2150 486 
Q 1747 -64 1235 -64 
Q 870 -64 662 160 
Q 454 384 454 755 
L 454 2362 
Q 454 2598 371 2688 
Q 288 2778 58 2790 
L 58 2880 
L 992 2880 
L 992 813 
Q 992 595 1123 451 
Q 1254 307 1446 307 
Q 1760 307 1984 506 
Q 2067 582 2099 649 
Q 2131 717 2131 877 
L 2131 2355 
Q 2131 2605 2041 2678 
Q 1952 2752 1658 2771 
L 1658 2880 
L 2669 2880 
L 2669 685 
Q 2669 461 2742 390 
Q 2816 320 3034 320 
L 3072 320 
z
" transform="scale(0.015625)"/>
      </defs>
      <use xlink:href="#STIXGeneral-Regular-74"/>
      <use xlink:href="#STIXGeneral-Regular-72" x="27.799988"/>
      <use xlink:href="#STIXGeneral-Regular-75" x="61.099976"/>
      <use xlink:href="#STIXGeneral-Regular-65" x="111.09996"/>
     </g>
    </g>
   </g>
  </g>
 </g>
 <defs>
  <clipPath id="pf91ce7b854">
   <rect x="44.611267" y="0" width="188.854733" height="131.74"/>
  </clipPath>
 </defs>
</svg>
